<?xml version="1.0" encoding="UTF-8"?>
<svg xmlns="http://www.w3.org/2000/svg" xmlns:xlink="http://www.w3.org/1999/xlink"
    viewBox="164.68 153.97 681.72 544.1">
    <defs>
        <style>
            .o{stroke:#f4d1d0;}
            .o,.p,.q,.r,.s{fill:none;stroke-linecap:round;stroke-linejoin:round;}
            .t{filter:url(#k);}
            .u{fill:#efe7c7;}
            .u,.v,.w,.x{stroke-width:0px;}
            .p{stroke:#e3c9e1;}
            .y{filter:url(#f);}
            .v{fill:#1f1031;}
            .q{stroke:#efe7c7;}
            .z{filter:url(#e);}
            .r{stroke:#c5c3e2;}
            .w{fill:#e3c9e1;}
            .aa{filter:url(#n);}
            .ab{filter:url(#i);}
            .s{stroke:#cfe8cc;}
            .ac{filter:url(#h);}
            .ad{filter:url(#c);}
            .ae{filter:url(#l);}
            .x{fill:#cfe8cc;}
        </style>
        <filter id="c">
            <feGaussianBlur stdDeviation="7" />
        </filter>
        <filter id="e">
            <feGaussianBlur stdDeviation="7" />
        </filter>
        <filter id="f">
            <feGaussianBlur stdDeviation="7" />
        </filter>
        <filter id="h">
            <feGaussianBlur stdDeviation="7" />
        </filter>
        <filter id="i">
            <feGaussianBlur stdDeviation="7" />
        </filter>
        <filter id="k">
            <feGaussianBlur stdDeviation="7" />
        </filter>
        <filter id="l">
            <feGaussianBlur stdDeviation="7" />
        </filter>
        <filter id="n">
            <feGaussianBlur stdDeviation="7" />
        </filter>
    </defs>
    <g id="a">
        <rect class="v" x="164.68" y="153.97" width="681.72" height="544.1" />
    </g>
    <g id="b">
        <g class="ad">
            <path class="r" d="m594.63,323.99s-29.48,7.22-39.86,11.45" />
            <path class="r" d="m593.85,325.09s-33.15,8.57-45.08,11.83" />
            <path class="r" d="m545.13,338.18s-16.1,4.46-17.98,5.94-11.59,8.74-20.56,25.12" />
            <path class="r" d="m584.56,325.28c-2.71-.44-6.02,1.38-7.1,3.15" />
            <path class="r" d="m583.52,325.22c-2.63-.38-5.91.42-8.27,3.82" />
            <line class="r" x1="578.77" y1="325.94" x2="565.06" y2="331.96" />
            <path class="r" d="m589.75,357.97c11.78-2.15,23.27-4.74,32.02-.3s17.49,9.93,21.42,13.71" />
            <path class="r"
                d="m593.08,371.16c9.12-2.74,17.42-3.85,24.16-.96,4.9,2.1,16.42,9.65,22.35,13.61l.43-.82" />
            <circle class="r" cx="633.79" cy="372.97" r="6.32" />
            <path class="r"
                d="m639.99,371.75c.61-.21,1.26-.32,1.94-.32,3.28,0,5.94,2.66,5.94,5.94s-2.66,5.94-5.94,5.94c-2.77,0-5.1-1.9-5.75-4.48" />
            <line class="r" x1="587.1" y1="332.45" x2="559.39" y2="338.82" />
            <line class="r" x1="553.36" y1="340.47" x2="551.53" y2="340.98" />
            <path class="r" d="m543.13,343.14s-8.84,3.39-13.59,6.16-14.53,13.24-18.38,19.37" />
            <path class="r" d="m574.79,335.28s.66,7.15.66,7.15" />
            <line class="r" x1="576.73" y1="334.83" x2="577.5" y2="342.23" />
            <path class="r" d="m577.27,340.04l7.16-.08s1.63,6.39,1.28,10.9" />
            <line class="r" x1="561.41" y1="338.36" x2="560.53" y2="340.51" />
            <line class="r" x1="557.49" y1="343.78" x2="554.03" y2="345.12" />
            <path class="r" d="m545.13,348.5c-11.48,6.43-22.97,15.55-27.12,20.14" />
            <path class="r" d="m529.8,349.15c1.03,3.34,2.06,5.85,2.06,5.85" />
            <line class="r" x1="541.04" y1="343.97" x2="543.06" y2="347.9" />
            <line class="r" x1="549.81" y1="358.76" x2="544.83" y2="361.64" />
            <line class="r" x1="540.7" y1="364.25" x2="532.24" y2="370.12" />
            <path class="r" d="m519.05,351.6s-8.31,2.21-12.38,4.51l-5.56,8.97" />
            <path class="r" d="m510.41,362.83c-8.49,1.88-13.82,3.14-15.16,4.1s-2.45,7.34-2.45,7.34" />
            <path class="r" d="m639.2,383.54c1.17,4.96.5,7.77.13,11.7s-3.71,22.97-3.85,28.38" />
            <path class="r"
                d="m637.18,409.78l7.56,16.29s-21.79,26.09-27.64,31.65c-5.2,4.94-17.14,8.48-37.17,13.63" />
            <path class="r"
                d="m595.16,381.83c7.78,7.78,15.34,14.82,19.64,23.57,4.3,8.75,9.19,16.23,14.23,17.49" />
            <path class="r" d="m606.93,393.99c6.76-1.11,15.65-4,19.8-7.56s6.45-4.97,9.93-3.41" />
            <path class="r" d="m604.4,391.19c4.99-2.24,4.47-2.24,8.7-1.8s10.55-.52,13.64-2.96" />
            <path class="r"
                d="m611.65,400.04l12.34,3.14s7.11,18.08,10.3,17.56c.47-.08.89-.47,1.27-1.09" />
            <path class="r" d="m613.62,403.18c8.59,4.07,17.78,15.19,20.74,20.15" />
            <path class="r" d="m613.61,419.41c10.6,7.11,16.82,8.45,28.68,5.85" />
            <path class="r"
                d="m596.89,444.41c8,2.08,15.91,1.78,15.91,1.78,0,0,2.77-.4,2.96-.69s2.37-6.42,2.37-6.42" />
            <path class="r" d="m621.49,440.65c.99-4.25,4.74-10.28,7.02-11.56" />
            <path class="r"
                d="m553.51,415.35c11.36,5.73,29.25,20.55,30.73,22.04s8.99,5.43,8.99,5.43" />
            <path class="r"
                d="m550.05,412.71l20.26,57.88s10.47,25.79,21.74,58.99c11.26,33.2,20.36,44.96,20.36,44.96" />
            <line class="r" x1="624.22" y1="450.06" x2="664.97" y2="518.27" />
            <path class="r"
                d="m620.49,454.2c.76,12.49.31,18.12-1.47,27.61-1.78,9.49-12.3,33.65-12.45,36.17" />
            <path class="r" d="m619.17,496.93c2.96,24.75,12.15,56.92,14.38,58.25" />
            <path class="r"
                d="m541.85,382.01c-1.09,12.5,30.33,135.82,35.47,161.51,5.14,25.69,14.82,58.5,14.82,58.5" />
            <polyline class="r" points="499.05 375.11 496.29 373.85 493.53 374.64" />
            <path class="r"
                d="m469.61,396.13c-2.96-9.04-6.67-17.79-22.53-13.78s-36.02,10.08-69.37,40.32-50.99,51.58-50.99,51.58" />
            <path class="r"
                d="m465.31,402.95c-.89-8.89-3.11-24.16-29.35-12.6-26.24,11.56-31.87,17.34-31.87,17.34" />
            <path class="r" d="m471.98,367.92c-2.67,9.39.59,15.51,7.81,15.51s8.1-.4,8.1-.4" />
            <path class="r"
                d="m482.06,415.92c10.75,1.85,13.49,3.19,23.57,0,7.8-2.47,18.31-5.02,23.21-5.67" />
            <path class="r"
                d="m486.07,413.77c5.63,2.22,8.89,4.22,15.27,1.19,6.37-3.04,12.38-4.82,14.23-5.19" />
            <path class="r" d="m485.7,399.47c3.26,1.41,5.78,5.71,10.52,5.78" />
            <path class="r"
                d="m518.16,438.16c4.52-3.63,16.08-14.82,19.86-16.6,0,0,6.39,1.02,7.87,1.4" />
            <path class="r" d="m547.22,424.36s6.14,16.79,7.02,20.56" />
            <path class="r" d="m528.99,428.61c7.03.43,19.18,8.58,24.52,20.96" />
            <path class="r" d="m524.94,432.22c7.96,1.35,21.9,8.39,29.01,22.91" />
            <path class="r" d="m523.4,433.6c5.73,1.52,15.21,7.38,15.21,7.38" />
            <path class="r" d="m520.01,436.6c10.3,3.86,18.23,10.38,18.23,10.38" />
            <path class="r"
                d="m519.79,438.75c15.12,5.19,21.27,9.78,28.46,22.23,4.19,7.26,6.11,13.48,6.99,17.41" />
            <polyline class="r" points="552.69 439.87 570.6 532.25 574.42 530.32" />
            <path class="r" d="m558.62,470.44c-1.65,6.57-2.54,10.92-2.54,10.92l-.59-2.17" />
            <path class="r" d="m555.77,480.22c-1.22,4.77-1.29,10.63-1,14.63" />
            <path class="r" d="m551.65,478.84s3.11,3.34,2.52,8.15-16.3,2.3-19.19.59" />
            <path class="r" d="m548.61,489.75c5.05.66,5.18,2.49,6.11,4.42" />
            <path class="r" d="m528.01,445.86c15.71,11.64,19.42,17.71,24.53,31.42" />
            <path class="r"
                d="m545.7,462.85c-.87-.01-7.83,2.95-7.83,2.95l-2.3,21.12s10.67-2,12.45-2.96,3.48-3.78,4.29-7.29" />
            <path class="r" d="m538.83,454.76c-2.74,1.41-5.4,3.04-6.44,4.22" />
            <path class="r" d="m531.87,460.54c-.07,6.15,3.83,25.29,3.83,25.29" />
            <path class="r" d="m520.16,487.96c4,.22,15.46-1.4,15.46-1.4" />
            <path class="r" d="m540.69,490.55c6,3.93-4.67,17.27-4.67,17.27" />
            <path class="r" d="m552.62,497.3c-8.15.07-11.49,4-13.78,11.86" />
            <path class="r" d="m554.72,494.17c-4.11,12.91-17.52,43.59-17.52,43.59l-1.7.96" />
            <path class="r" d="m482.82,398.29c-4.76,2.74-7.13,6.22-6.69,8.97" />
            <polyline class="r" points="480.78 398.35 477.47 399.54 472.8 408.88" />
            <path class="r" d="m479.46,397.94c-5.55,1.01-8.81,1.53-15.7,12.5s-9.93,23.35-9.93,23.35" />
            <path class="r" d="m475.23,396.37l-5.62-.23s-9.49,15.26-12.38,27.38" />
            <path class="r" d="m474.13,401.99c-6.82,4-15.49,8.75-4.59,20.53" />
            <path class="r" d="m490.77,403.14c3.97-.18,9.53,1.45,9.53,1.45" />
            <path class="r" d="m534.82,412.89c1.87,4.15,3.2,6.29,3.2,6.29" />
            <path class="r" d="m505.93,432.89c10.6-4.22,26.01-12.08,31.42-11.86" />
            <path class="r" d="m510,434.9c5.19-3.19,7.11-4.74,7.11-4.74,0,0,11.19-1.56,12.08-2.74" />
            <path class="r"
                d="m530.16,410.11c1.78,2.84.08,5.81-6.96,11.89s-13.56,7.56-19.94,6.74c-2.18-.28-4.26-.19-6.04.04" />
            <path class="r" d="m460.99,415.28c1.66-.32,5.44,4.94,6.18,12.87" />
            <path class="r" d="m468.87,426.22c3.93,7.56,6,10.01,6,10.01" />
            <path class="r"
                d="m440.86,453.13c3.48-11.49,10.6-19.05,10.6-19.05,0,0,20.68,14.53,23.86,17.34,0,0,7.04-21.49,10.52-25.05,0,0,13.19,9.86,19.57,22.9s10.23,41.21,10.23,41.21c0,0,15.04,25.79,19.86,34.46" />
            <path class="r"
                d="m535.5,524.94c.67,4.52,1.19,11.93-.74,14.6s-20.97,7.93-35.28,3.26l-3.26,2.45s-18.31-3.04-31.42-14.23" />
            <polyline class="r" points="528.38 513.31 497.26 541.69 496.15 543.91" />
            <path class="r" d="m513.12,458.31c6.67-8.15,10.08-10.23,12.3-11.19" />
            <path class="r" d="m528.98,462.32c-2.08,5.41-9.78,14.01-9.78,14.01" />
            <path class="r" d="m460.31,414.32c-30.22,22.47-48.5,47.28-54.53,55.68" />
            <path class="r" d="m456.05,426.65c-6.3,6.49-25.47,26.74-31.7,34.25" />
            <line class="r" x1="461.67" y1="411.17" x2="453.21" y2="417.23" />
            <path class="r" d="m447.38,419.41c1.98-1.28,3.66-1.98,3.66-1.98,0,0,3.13-.14,4.33.67" />
            <path class="r" d="m440.96,419.01c1.19-1.28,3.36-1.98,3.36-1.98,0,0,5.86,5.25,6.41,4.8" />
            <path class="r" d="m441.85,419.6c3.66,1.78,6.45,2.56,7.18,3.65" />
            <path class="r" d="m445.65,421.3c1.36,1.59,1.92,3.19,1.92,3.19" />
            <path class="r" d="m440.64,419.11s-26.01-8.52-42.17-10.52" />
            <path class="r" d="m440.78,421.41c-8.75-3.11-26.38-5.93-30.68-6" />
            <path class="r" d="m446.87,425.08c-10.38-.12-33.06,2.47-35.51,2.25" />
            <path class="r" d="m437.17,433.88c-4.83,2.72-13.28,9.69-13.28,9.69" />
            <path class="r"
                d="m378.68,455.94c.82-.52,6.15-7.34,6.15-7.34-.44-14.23,6.3-35.28,12.23-38.76,0,0,11.41,3.48,12.6,5.56s1.93,10.82,1.7,11.93,9.36,10.91,12.05,20.72" />
            <line class="r" x1="398.47" y1="408.59" x2="397.06" y2="409.85" />
            <line class="r" x1="503.45" y1="445.69" x2="475.32" y2="451.42" />
            <path class="r" d="m235.85,467.38c11.72,10.42,64.41,40.58,82.24,40.62" />
            <path class="r"
                d="m416.85,567.43c-.4,3.56-6.92,23.32-9.68,28.85s1.38,16.8,4.74,18.58,13.24,9.68,20.55.79,9.09-12.06,10.67-19.76c1.58-7.71,4.66-23.07,7.57-26.65" />
            <path class="r"
                d="m514.58,590c.48,11.42,2.32,24.6,5.43,30.3,4.54,8.33,23.32,5.84,27.47-3.47,2.39-5.36,5.53-15.02,5.53-15.02,2.68-8.4,4.55-33.2,3.56-37.95s-4.94-6.52-15.45-4.62" />
            <path class="r"
                d="m577.78,545.76c-13.7,8.82-28.92,14.95-43.34,11.79s-32.41-7.51-32.41-7.51l-5.98,2.08" />
            <path class="r" d="m545.21,523.46c-2.67,8.6-.89,25.79-.89,25.79" />
            <path class="r" d="m564.28,343.51l13.73-1.33s10.18,9.88,11.73,15.79" />
            <path class="r" d="m559.43,345.91c-1.18.35-2.91,2.69-2.91,2.69" />
            <line class="r" x1="549.99" y1="358.96" x2="547.94" y2="363.47" />
            <path class="r"
                d="m545.57,368.28c-3.4,9.25-4.22,11.99-3.47,15.7s8,28.9,8,28.9c4.74-5.63,13.27-25.35,13.27-25.35.37-9.93,1.26-13.27,4.74-23.12s7.34-12.15,8.37-22.09" />
            <path class="r"
                d="m589.75,357.97c2.52,9.12,6.08,27.79,8.67,38.69,2.59,10.89,3.78,21.57,6.3,23.79.99.87,2.75,2.23,4.52,3.56" />
            <path class="r"
                d="m496.59,376.72s-15.84-9.31-22.23-15.91c-6.39-6.6-8.7-6.32-12.15-14.13l-6.23-3.75-9.19-15.71" />
            <path class="r" d="m465.14,351.91c1.22,5.84,6.85,41.01,10.41,44.87" />
            <path class="r" d="m456.67,345.2c2.08,6.62.3,10.08.3,10.08" />
            <path class="r"
                d="m444.91,326.12c1.88,1.09,1.78.89.99,7.21s-7.31,9.88-15.02,14.53-42.98,25.3-67.19,36.66c-24.21,11.36-65.02,34.49-65.02,34.49,0,0-47.53,26.19-60.28,44.57-.95,1.37-1.79,2.63-2.53,3.81" />
            <line class="r" x1="433.45" y1="326.12" x2="428.21" y2="329.29" />
            <path class="r"
                d="m425.05,330.97c-6.52,3.66-17.49,12.45-25,20.95s-20.13,23.08-26.12,27.6" />
            <path class="r"
                d="m453.9,360.41c-4.64,4.25-14.33,15.42-28.16,20.65s-43.68,12.65-43.68,12.65" />
            <path class="r" d="m451.33,340.55c.2,13.93,6.52,36.56-41.4,36.17" />
            <path class="r" d="m403.7,375.83c-10.28-.1-17.69,1.19-22.83,3.26" />
        </g>
        <path class="r" d="m594.63,323.99s-29.48,7.22-39.86,11.45" />
        <path class="r" d="m593.85,325.09s-33.15,8.57-45.08,11.83" />
        <path class="r" d="m545.13,338.18s-16.1,4.46-17.98,5.94-11.59,8.74-20.56,25.12" />
        <path class="r" d="m584.56,325.28c-2.71-.44-6.02,1.38-7.1,3.15" />
        <path class="r" d="m583.52,325.22c-2.63-.38-5.91.42-8.27,3.82" />
        <line class="r" x1="578.77" y1="325.94" x2="565.06" y2="331.96" />
        <path class="r" d="m589.75,357.97c11.78-2.15,23.27-4.74,32.02-.3s17.49,9.93,21.42,13.71" />
        <path class="r"
            d="m593.08,371.16c9.12-2.74,17.42-3.85,24.16-.96,4.9,2.1,16.42,9.65,22.35,13.61l.43-.82" />
        <circle class="r" cx="633.79" cy="372.97" r="6.32" />
        <path class="r"
            d="m639.99,371.75c.61-.21,1.26-.32,1.94-.32,3.28,0,5.94,2.66,5.94,5.94s-2.66,5.94-5.94,5.94c-2.77,0-5.1-1.9-5.75-4.48" />
        <line class="r" x1="587.1" y1="332.45" x2="559.39" y2="338.82" />
        <line class="r" x1="553.36" y1="340.47" x2="551.53" y2="340.98" />
        <path class="r" d="m543.13,343.14s-8.84,3.39-13.59,6.16-14.53,13.24-18.38,19.37" />
        <path class="r" d="m574.79,335.28s.66,7.15.66,7.15" />
        <line class="r" x1="576.73" y1="334.83" x2="577.5" y2="342.23" />
        <path class="r" d="m577.27,340.04l7.16-.08s1.63,6.39,1.28,10.9" />
        <line class="r" x1="561.41" y1="338.36" x2="560.53" y2="340.51" />
        <line class="r" x1="557.49" y1="343.78" x2="554.03" y2="345.12" />
        <path class="r" d="m545.13,348.5c-11.48,6.43-22.97,15.55-27.12,20.14" />
        <path class="r" d="m529.8,349.15c1.03,3.34,2.06,5.85,2.06,5.85" />
        <line class="r" x1="541.04" y1="343.97" x2="543.06" y2="347.9" />
        <line class="r" x1="549.81" y1="358.76" x2="544.83" y2="361.64" />
        <line class="r" x1="540.7" y1="364.25" x2="532.24" y2="370.12" />
        <path class="r" d="m519.05,351.6s-8.31,2.21-12.38,4.51l-5.56,8.97" />
        <path class="r" d="m510.41,362.83c-8.49,1.88-13.82,3.14-15.16,4.1s-2.45,7.34-2.45,7.34" />
        <path class="r" d="m639.2,383.54c1.17,4.96.5,7.77.13,11.7s-3.71,22.97-3.85,28.38" />
        <path class="r"
            d="m637.18,409.78l7.56,16.29s-21.79,26.09-27.64,31.65c-5.2,4.94-17.14,8.48-37.17,13.63" />
        <path class="r"
            d="m595.16,381.83c7.78,7.78,15.34,14.82,19.64,23.57,4.3,8.75,9.19,16.23,14.23,17.49" />
        <path class="r" d="m606.93,393.99c6.76-1.11,15.65-4,19.8-7.56s6.45-4.97,9.93-3.41" />
        <path class="r" d="m604.4,391.19c4.99-2.24,4.47-2.24,8.7-1.8s10.55-.52,13.64-2.96" />
        <path class="r" d="m611.65,400.04l12.34,3.14s7.11,18.08,10.3,17.56c.47-.08.89-.47,1.27-1.09" />
        <path class="r" d="m613.62,403.18c8.59,4.07,17.78,15.19,20.74,20.15" />
        <path class="r" d="m613.61,419.41c10.6,7.11,16.82,8.45,28.68,5.85" />
        <path class="r"
            d="m596.89,444.41c8,2.08,15.91,1.78,15.91,1.78,0,0,2.77-.4,2.96-.69s2.37-6.42,2.37-6.42" />
        <path class="r" d="m621.49,440.65c.99-4.25,4.74-10.28,7.02-11.56" />
        <path class="r" d="m553.51,415.35c11.36,5.73,29.25,20.55,30.73,22.04s8.99,5.43,8.99,5.43" />
        <path class="r"
            d="m550.05,412.71l20.26,57.88s10.47,25.79,21.74,58.99c11.26,33.2,20.36,44.96,20.36,44.96" />
        <line class="r" x1="624.22" y1="450.06" x2="664.97" y2="518.27" />
        <path class="r"
            d="m620.49,454.2c.76,12.49.31,18.12-1.47,27.61-1.78,9.49-12.3,33.65-12.45,36.17" />
        <path class="r" d="m619.17,496.93c2.96,24.75,12.15,56.92,14.38,58.25" />
        <path class="r"
            d="m541.85,382.01c-1.09,12.5,30.33,135.82,35.47,161.51,5.14,25.69,14.82,58.5,14.82,58.5" />
        <polyline class="r" points="499.05 375.11 496.29 373.85 493.53 374.64" />
        <path class="r"
            d="m469.61,396.13c-2.96-9.04-6.67-17.79-22.53-13.78s-36.02,10.08-69.37,40.32-50.99,51.58-50.99,51.58" />
        <path class="r"
            d="m465.31,402.95c-.89-8.89-3.11-24.16-29.35-12.6-26.24,11.56-31.87,17.34-31.87,17.34" />
        <path class="r" d="m471.98,367.92c-2.67,9.39.59,15.51,7.81,15.51s8.1-.4,8.1-.4" />
        <path class="r"
            d="m482.06,415.92c10.75,1.85,13.49,3.19,23.57,0,7.8-2.47,18.31-5.02,23.21-5.67" />
        <path class="r"
            d="m486.07,413.77c5.63,2.22,8.89,4.22,15.27,1.19,6.37-3.04,12.38-4.82,14.23-5.19" />
        <path class="r" d="m485.7,399.47c3.26,1.41,5.78,5.71,10.52,5.78" />
        <path class="r" d="m518.16,438.16c4.52-3.63,16.08-14.82,19.86-16.6,0,0,6.39,1.02,7.87,1.4" />
        <path class="r" d="m547.22,424.36s6.14,16.79,7.02,20.56" />
        <path class="r" d="m528.99,428.61c7.03.43,19.18,8.58,24.52,20.96" />
        <path class="r" d="m524.94,432.22c7.96,1.35,21.9,8.39,29.01,22.91" />
        <path class="r" d="m523.4,433.6c5.73,1.52,15.21,7.38,15.21,7.38" />
        <path class="r" d="m520.01,436.6c10.3,3.86,18.23,10.38,18.23,10.38" />
        <path class="r"
            d="m519.79,438.75c15.12,5.19,21.27,9.78,28.46,22.23,4.19,7.26,6.11,13.48,6.99,17.41" />
        <polyline class="r" points="552.69 439.87 570.6 532.25 574.42 530.32" />
        <path class="r" d="m558.62,470.44c-1.65,6.57-2.54,10.92-2.54,10.92l-.59-2.17" />
        <path class="r" d="m555.77,480.22c-1.22,4.77-1.29,10.63-1,14.63" />
        <path class="r" d="m551.65,478.84s3.11,3.34,2.52,8.15-16.3,2.3-19.19.59" />
        <path class="r" d="m548.61,489.75c5.05.66,5.18,2.49,6.11,4.42" />
        <path class="r" d="m528.01,445.86c15.71,11.64,19.42,17.71,24.53,31.42" />
        <path class="r"
            d="m545.7,462.85c-.87-.01-7.83,2.95-7.83,2.95l-2.3,21.12s10.67-2,12.45-2.96,3.48-3.78,4.29-7.29" />
        <path class="r" d="m538.83,454.76c-2.74,1.41-5.4,3.04-6.44,4.22" />
        <path class="r" d="m531.87,460.54c-.07,6.15,3.83,25.29,3.83,25.29" />
        <path class="r" d="m520.16,487.96c4,.22,15.46-1.4,15.46-1.4" />
        <path class="r" d="m540.69,490.55c6,3.93-4.67,17.27-4.67,17.27" />
        <path class="r" d="m552.62,497.3c-8.15.07-11.49,4-13.78,11.86" />
        <path class="r" d="m554.72,494.17c-4.11,12.91-17.52,43.59-17.52,43.59l-1.7.96" />
        <path class="r" d="m482.82,398.29c-4.76,2.74-7.13,6.22-6.69,8.97" />
        <polyline class="r" points="480.78 398.35 477.47 399.54 472.8 408.88" />
        <path class="r" d="m479.46,397.94c-5.55,1.01-8.81,1.53-15.7,12.5s-9.93,23.35-9.93,23.35" />
        <path class="r" d="m475.23,396.37l-5.62-.23s-9.49,15.26-12.38,27.38" />
        <path class="r" d="m474.13,401.99c-6.82,4-15.49,8.75-4.59,20.53" />
        <path class="r" d="m490.77,403.14c3.97-.18,9.53,1.45,9.53,1.45" />
        <path class="r" d="m534.82,412.89c1.87,4.15,3.2,6.29,3.2,6.29" />
        <path class="r" d="m505.93,432.89c10.6-4.22,26.01-12.08,31.42-11.86" />
        <path class="r" d="m510,434.9c5.19-3.19,7.11-4.74,7.11-4.74,0,0,11.19-1.56,12.08-2.74" />
        <path class="r"
            d="m530.16,410.11c1.78,2.84.08,5.81-6.96,11.89s-13.56,7.56-19.94,6.74c-2.18-.28-4.26-.19-6.04.04" />
        <path class="r" d="m460.99,415.28c1.66-.32,5.44,4.94,6.18,12.87" />
        <path class="r" d="m468.87,426.22c3.93,7.56,6,10.01,6,10.01" />
        <path class="r"
            d="m440.86,453.13c3.48-11.49,10.6-19.05,10.6-19.05,0,0,20.68,14.53,23.86,17.34,0,0,7.04-21.49,10.52-25.05,0,0,13.19,9.86,19.57,22.9s10.23,41.21,10.23,41.21c0,0,15.04,25.79,19.86,34.46" />
        <path class="r"
            d="m535.5,524.94c.67,4.52,1.19,11.93-.74,14.6s-20.97,7.93-35.28,3.26l-3.26,2.45s-18.31-3.04-31.42-14.23" />
        <polyline class="r" points="528.38 513.31 497.26 541.69 496.15 543.91" />
        <path class="r" d="m513.12,458.31c6.67-8.15,10.08-10.23,12.3-11.19" />
        <path class="r" d="m528.98,462.32c-2.08,5.41-9.78,14.01-9.78,14.01" />
        <path class="r" d="m460.31,414.32c-30.22,22.47-48.5,47.28-54.53,55.68" />
        <path class="r" d="m456.05,426.65c-6.3,6.49-25.47,26.74-31.7,34.25" />
        <line class="r" x1="461.67" y1="411.17" x2="453.21" y2="417.23" />
        <path class="r" d="m447.38,419.41c1.98-1.28,3.66-1.98,3.66-1.98,0,0,3.13-.14,4.33.67" />
        <path class="r" d="m440.96,419.01c1.19-1.28,3.36-1.98,3.36-1.98,0,0,5.86,5.25,6.41,4.8" />
        <path class="r" d="m441.85,419.6c3.66,1.78,6.45,2.56,7.18,3.65" />
        <path class="r" d="m445.65,421.3c1.36,1.59,1.92,3.19,1.92,3.19" />
        <path class="r" d="m440.64,419.11s-26.01-8.52-42.17-10.52" />
        <path class="r" d="m440.78,421.41c-8.75-3.11-26.38-5.93-30.68-6" />
        <path class="r" d="m446.87,425.08c-10.38-.12-33.06,2.47-35.51,2.25" />
        <path class="r" d="m437.17,433.88c-4.83,2.72-13.28,9.69-13.28,9.69" />
        <path class="r"
            d="m378.68,455.94c.82-.52,6.15-7.34,6.15-7.34-.44-14.23,6.3-35.28,12.23-38.76,0,0,11.41,3.48,12.6,5.56s1.93,10.82,1.7,11.93,9.36,10.91,12.05,20.72" />
        <line class="r" x1="398.47" y1="408.59" x2="397.06" y2="409.85" />
        <line class="r" x1="503.45" y1="445.69" x2="475.32" y2="451.42" />
        <path class="r" d="m235.85,467.38c11.72,10.42,64.41,40.58,82.24,40.62" />
        <path class="r"
            d="m416.85,567.43c-.4,3.56-6.92,23.32-9.68,28.85s1.38,16.8,4.74,18.58,13.24,9.68,20.55.79,9.09-12.06,10.67-19.76c1.58-7.71,4.66-23.07,7.57-26.65" />
        <path class="r"
            d="m514.58,590c.48,11.42,2.32,24.6,5.43,30.3,4.54,8.33,23.32,5.84,27.47-3.47,2.39-5.36,5.53-15.02,5.53-15.02,2.68-8.4,4.55-33.2,3.56-37.95s-4.94-6.52-15.45-4.62" />
        <path class="r"
            d="m577.78,545.76c-13.7,8.82-28.92,14.95-43.34,11.79s-32.41-7.51-32.41-7.51l-5.98,2.08" />
        <path class="r" d="m545.21,523.46c-2.67,8.6-.89,25.79-.89,25.79" />
        <path class="r" d="m564.28,343.51l13.73-1.33s10.18,9.88,11.73,15.79" />
        <path class="r" d="m559.43,345.91c-1.18.35-2.91,2.69-2.91,2.69" />
        <line class="r" x1="549.99" y1="358.96" x2="547.94" y2="363.47" />
        <path class="r"
            d="m545.57,368.28c-3.4,9.25-4.22,11.99-3.47,15.7s8,28.9,8,28.9c4.74-5.63,13.27-25.35,13.27-25.35.37-9.93,1.26-13.27,4.74-23.12s7.34-12.15,8.37-22.09" />
        <path class="r"
            d="m589.75,357.97c2.52,9.12,6.08,27.79,8.67,38.69,2.59,10.89,3.78,21.57,6.3,23.79.99.87,2.75,2.23,4.52,3.56" />
        <path class="r"
            d="m496.59,376.72s-15.84-9.31-22.23-15.91c-6.39-6.6-8.7-6.32-12.15-14.13l-6.23-3.75-9.19-15.71" />
        <path class="r" d="m465.14,351.91c1.22,5.84,6.85,41.01,10.41,44.87" />
        <path class="r" d="m456.67,345.2c2.08,6.62.3,10.08.3,10.08" />
        <path class="r"
            d="m444.91,326.12c1.88,1.09,1.78.89.99,7.21s-7.31,9.88-15.02,14.53-42.98,25.3-67.19,36.66c-24.21,11.36-65.02,34.49-65.02,34.49,0,0-47.53,26.19-60.28,44.57-.95,1.37-1.79,2.63-2.53,3.81" />
        <line class="r" x1="433.45" y1="326.12" x2="428.21" y2="329.29" />
        <path class="r" d="m425.05,330.97c-6.52,3.66-17.49,12.45-25,20.95s-20.13,23.08-26.12,27.6" />
        <path class="r"
            d="m453.9,360.41c-4.64,4.25-14.33,15.42-28.16,20.65s-43.68,12.65-43.68,12.65" />
        <path class="r" d="m451.33,340.55c.2,13.93,6.52,36.56-41.4,36.17" />
        <path class="r" d="m403.7,375.83c-10.28-.1-17.69,1.19-22.83,3.26" />
    </g>
    <g id="d">
        <g class="z">
            <path class="s" d="m587.8,247.57c2.96,9.98,3.85,20.45,4.05,27.57" />
            <path class="s"
                d="m590.86,259.23c2.77,9.78,2.47,16.7,2.47,16.7h5.93c.69-3.06,1.49-21.05-3.26-34.68" />
            <path class="s" d="m562.1,276.82l1.88,6.42,2.67-1.38c-1.09-4.94-3.46-22.43-1.19-33.5" />
            <path class="s" d="m556.01,246.78c-2.6,9.29-5.86,28.06-2.7,43.18" />
            <path class="s" d="m555.47,221.97c-7.44,11.56-17.82,43.58-9.96,76.33l4.12-1.63" />
            <path class="s" d="m578.01,209.97c6.77-2.22,13.26-3.11,23.73,9.34" />
            <path class="s" d="m577.45,208.11c20.08-8.45,30.19-3.68,42.37,9.31" />
            <path class="s"
                d="m566.65,236.6c-3.36,19.76.79,42.1,2.17,45.26l5.04-1.98c2.08-7.21,3.56-14.23,4.15-27.96" />
            <path class="s"
                d="m577.23,262.77c-.8,12.26-1.99,16.61-1.99,16.61l1.78-.89c2.17-6.62,4.35-23.91,2.91-44.07" />
            <path class="s"
                d="m580.4,251.02c.58,8.5-1.6,27.08-1.6,27.08l2.27-.79c3.56-22.33,4.94-43.28-4.94-61.86" />
            <path class="s" d="m583.13,238.45c4.57,10.3,7.73,31.54,7.73,37.47" />
            <path class="s" d="m584.54,215.45c11.46,15.22,17.39,26.48,24.9,57.61" />
            <path class="s" d="m563.19,227.41c-4.05,14.92-9.68,31.23-1.48,56.42" />
            <path class="s"
                d="m566.16,217.43c-8.2,14.23-11.36,27.67-10.57,43.18s5.23,26.28,5.23,26.28" />
            <path class="s" d="m563.19,222.57c-5.04,10.38-19.96,39.13-10.47,68.58" />
            <path class="s"
                d="m572.48,209.52c-7.41-2.37-16.3,2.37-29.35,16.01-13.04,13.64-27.72,64.77-31.57,88.34-2.18,13.36-3.7,23.71-3.69,32.9" />
            <path class="s" d="m509.33,330.02c-11.16,6.18-36.85,17.84-46.14,19.13" />
            <path class="s" d="m508.26,338.04c-8.01,3.8-34.4,13.28-43.19,13.87" />
            <path class="s" d="m508.09,340.76c-7.55,3.94-29.68,11.94-40.65,13.52" />
            <path class="s" d="m507.88,345.44c-10.1,4.6-22.65,8.16-25.52,8.55" />
            <path class="s" d="m516.02,344.4l-2.24.93s-20.91,7.89-29.72,8.33" />
            <path class="s" d="m534.28,248.23c-6.56,15.54-24.6,62.21-26.32,94.68" />
            <path class="s" d="m529.58,266.6c-5.57,15.99-10.61,43.41-11.35,54.83" />
            <path class="s" d="m527.57,288.97s-13.78,41.65-14.38,63.88" />
            <line class="s" x1="551.14" y1="291.49" x2="536.61" y2="329.43" />
            <path class="s" d="m545.5,298.31s-8,30.09-13.04,41.21" />
            <path class="s" d="m542.54,302.01s-4.57,13.99-8.73,34.27" />
            <path class="s" d="m540.86,307.57s-11.81,27.5-14.33,39.06" />
            <path class="s" d="m531.42,323.21c-2.22,6.52-4.27,20.91-4.27,20.91" />
            <path class="s" d="m529.5,307.94c-5.19,16.01-11.71,33.2-13.19,43.28" />
            <path class="s" d="m526.54,316.84c.58.74-6.68,32.31-6.68,32.31" />
            <path class="s" d="m557,309.27c-8.68,9.93-19.64,18.21-19.64,18.21" />
            <line class="s" x1="537.57" y1="319.78" x2="535.25" y2="321.21" />
            <line class="s" x1="537.06" y1="321.84" x2="534.42" y2="323.31" />
            <path class="s" d="m563.48,314.46c-12.04,10.53-22.57,18.16-29.38,21.09" />
            <line class="s" x1="517.55" y1="324.8" x2="509.11" y2="330.16" />
            <path class="s" d="m563.69,316.54c-5.43,5.14-12.35,11.56-14.92,13.14" />
            <path class="s" d="m547.58,270.09c-1.28,9.69-.49,21.45.4,27.33" />
            <path class="s" d="m544.47,234.42c-5.34,17.34-12.3,51.58-7.26,69.22" />
            <path class="s" d="m543.09,283.24l.93,16.9-3.26,1.88c-4-15.42-3.71-25.2-2.13-43.43" />
            <path class="s"
                d="m546.9,229.09c-9.85,14.08-11.92,24.16-13.56,39.28-1.63,15.12.37,26.09,2.11,35.28" />
            <path class="s" d="m537.3,247.57c-4.34,11.66-10.82,33.87-3.99,62.43" />
            <path class="s"
                d="m535.82,244.26c-5.93,14.08-8.89,33.94-7.31,46.39s3.75,17.39,5.73,21.25" />
            <path class="s" d="m552.45,295.2c-1.76,4.59-6.53,9.91-6.53,9.91" />
            <path class="s" d="m554.45,304.42c-4.94,5.59-12.91,12.13-12.91,12.13" />
            <path class="s" d="m517.04,333.58c-2.08,10.08-.42,15.74-.42,15.74" />
            <path class="s" d="m528.94,333.5c-1.67,3.79-6.5,8.46-8.31,12.28" />
            <line class="s" x1="534.09" y1="335.55" x2="528.96" y2="338.2" />
            <line class="s" x1="524.23" y1="329.5" x2="521.89" y2="330.65" />
            <line class="s" x1="523.34" y1="331.95" x2="521.15" y2="332.93" />
            <line class="s" x1="522.46" y1="337.62" x2="519.09" y2="339.54" />
            <line class="s" x1="513.78" y1="342.33" x2="507.88" y2="345.44" />
            <line class="s" x1="515.01" y1="337.14" x2="508.09" y2="340.76" />
            <line class="s" x1="515.52" y1="334.38" x2="508.26" y2="338.04" />
            <line class="s" x1="527.94" y1="339.07" x2="523.58" y2="341.26" />
            <line class="s" x1="521.57" y1="341.63" x2="517.95" y2="343.62" />
            <path class="s" d="m558.38,270.09s.31,7.89,1.52,14.28" />
            <path class="s" d="m549.63,268.96c-1.75,9.34-.77,23.42,0,27.72" />
            <path class="s" d="m571.59,322.86c-5.24,5.34-9.39,8.7-9.39,8.7" />
            <path class="s"
                d="m651.82,281.78c10.29,24.98,19.78,40.39,36.18,55.81,16.4,15.42,63.83,41.7,81.82,57.91s25.18,18.33,36.8,46.12c11.62,27.79,3.52,73.45-7.75,87.28" />
            <path class="s"
                d="m650.84,300.43c18.58,28.26,32.81,38.93,46.64,47.63s55.14,31.23,69.57,40.91,44.07,34.78,56.32,65.02c12.25,30.24-8.5,78.66-45.46,91.5" />
            <path class="s"
                d="m703.02,388.38c25.49,24.11,73.95,69.08,71.34,122.53-1.1,22.63-4.15,45.65-27.47,74.31" />
            <path class="s"
                d="m737.4,582.85s19.17-27.67,19.76-66.6c.59-38.93-25.89-85.77-39.13-104.74s-28.06-29.45-54.35-60.48" />
            <path class="s"
                d="m664.81,352.34c19.73,35.34,43.15,81.89,46.41,123.98s-8.3,72.04-8.3,72.04" />
            <path class="s" d="m688.69,410.51c13.04,32.02,27.8,74.34,16.72,129.96" />
            <path class="s"
                d="m656.97,397.86c9.09,21.94,19.96,60.08,21.15,93.08,1,27.71-1.07,63.93-17.8,79.27l23.37-6.96c8.92-14.98,16.01-32.14,18.34-42.67,4.55-20.55-.4-64.63-10.17-102.14" />
            <path class="s" d="m654.31,382.14c6.02,29.76,9.77,71.85-5.84,108.41" />
            <path class="s" d="m644.12,382.84c8.89,22.73,16.09,66.95,5.57,104.72" />
            <path class="s" d="m654.85,451.24c-4.01,20.15-10.73,32.4-10.73,32.4" />
            <path class="s" d="m639.75,386.76c3.78,26.33,6.52,69.35,2.39,93.29" />
            <path class="s" d="m636.99,225.97c4.53,10.49,4.75,22.64,1.65,31.88" />
            <path class="s" d="m640.74,250.36c.07,5.93-.74,11.89-.74,11.89" />
            <path class="s" d="m639.62,266.55c-.51,3.3-1.03,11.23-6.59,18.79" />
            <line class="s" x1="643.48" y1="276.22" x2="634.5" y2="283.14" />
            <path class="s" d="m645.06,276.29c-1.72,2.57-3.75,5.2-6.11,7.93" />
            <path class="s" d="m652.82,249.02c.54,9.16-1.39,17.06-6.58,25.45" />
            <path class="s" d="m637.4,225.31c6.52,14.38,16.16,34.98,45.95,33.57" />
            <path class="s"
                d="m645.55,234.57c12.3,16.45,21.05,21.27,32.91,23.64,4.22.84,8.24.36,11.67-.62" />
            <path class="s" d="m649.48,234.05c2.37,4.89,3.08,9.07,3.08,9.07" />
            <path class="s" d="m674.92,258.66c1.14,5.87,1.5,11.98.57,17.93" />
            <path class="s"
                d="m642.89,215.83c5.03-.45,9.18.58,15.26,7.18,4.31,4.68,13,18.4,16.43,34.01" />
            <path class="s" d="m672.37,258.32c2.9,8.73,4.41,17.86,1.89,25.02" />
            <path class="s" d="m663.98,239.17c2.53,4.83,5.46,10.9,7.73,17.27" />
            <path class="s" d="m668.07,257.19c.1,7.54-1.63,16.18-7.17,22.81" />
            <path class="s" d="m665.49,243.09c1.16,2.65,2.2,6.93,2.5,11.87" />
            <path class="s" d="m666.02,256.78c.44,4.7.23,13.18-1.3,17.2" />
            <path class="s" d="m666.17,264.22c-1.5,6.15-3.28,10.44-7.87,14.67" />
            <path class="s" d="m663.86,267.33c-1.33,3.93-3.43,9.37-3.43,9.37" />
            <path class="s" d="m652.83,254.5c-.14,11.5-.16,14.96-4.67,23.09" />
            <path class="s" d="m656.13,263.38c-1.12,5.86-3.09,11.33-7.12,15.48" />
            <path class="s"
                d="m655.37,267.51c-.93,4.89-3.56,14.27-3.56,14.27,0,0,7.17-6.7,10.07-8.94" />
            <path class="s"
                d="m613.86,267.81c-1.76,10.58-6.7,25.9-22.01,44.08-7.5,8.91-14.75,14.18-23.09,17.88" />
            <path class="s"
                d="m616.06,273.85c-3.85,15.12-7.55,21.94-20.92,38.44-4.89,6.03-12.57,10.79-20.36,14.41" />
            <path class="s" d="m610.5,289.96c-2.25,8.7-12.33,35.57-28.04,47.04" />
            <line class="s" x1="642.82" y1="276.73" x2="640.89" y2="280.56" />
            <path class="s" d="m648.01,279.63c-.65.67-1.36,1.29-2.13,1.87" />
            <path class="s" d="m633.73,270.78c-.68,23.53-5.62,47.04-32.4,62.06" />
            <path class="s"
                d="m631.47,275.73c-2.17,15.61-6.36,30.72-15.91,42.49-4.97,6.13-12.86,12.3-20.79,17.12" />
            <path class="s" d="m618.73,301.42c-13.93,31.62-28.76,33.7-32.81,35.97" />
            <path class="s"
                d="m652.02,302.21c10.48,31.03,34.79,64.62,47.04,77.47,5.21,5.47,13.33,15.16,20.93,24.49" />
            <path class="s" d="m638.31,306.86c5.48,16.99,15.09,32.53,25.38,44.17" />
            <path class="s" d="m633.79,284.24c.42,5.9,1.46,11.76,3,17.48" />
            <path class="s" d="m630.45,296.04c7.94,38.98,23.95,89.38,27.9,95.9" />
            <line class="s" x1="624.29" y1="310.99" x2="627.62" y2="322.47" />
            <path class="s" d="m595.14,231.54c4.32,13.06,7.97,30.45,6.1,43.59" />
            <path class="s"
                d="m604.44,254.53c2.92,13.69,3.02,22.7,3.02,22.7,0,0-2.96-16.62-8.18-30.45" />
            <path class="s" d="m605.58,308.73c-5.93,11.36-11.59,19.65-18.59,24.4" />
            <path class="s" d="m647.44,278.88c-.64,1.11-1.36,2.32-2.18,3.65" />
            <path class="s" d="m600.74,317.36s-8.2,15.98-14.03,19.63" />
            <path class="s" d="m609.31,204.78c7.42,2.96,16.86,8.32,16.86,8.32" />
            <line class="s" x1="630.28" y1="215.55" x2="632.88" y2="216.93" />
            <path class="s" d="m613.86,250.8c1.08,7.04.48,13.27.48,13.27" />
            <path class="s" d="m632.01,245.1c-1.92,8.4-3.44,15.63-6.68,24.17" />
            <path class="s" d="m624.31,271.87s-5.58,9.79-6.77,10.68" />
            <path class="s" d="m634.44,267.25c-2.74,5.56-7.12,9.59-15.79,13.91" />
            <path class="s" d="m633.02,269.75c-1.33,3.14-6.15,10.47-6.15,10.47" />
            <path class="s" d="m637.21,262.97c-1.45,4.44-3.87,9.68-8.93,15.08" />
            <path class="s" d="m401.14,350.71c-27.38-7.98-65.08-28.59-73.39-68.12" />
            <path class="s"
                d="m400.05,351.91c-36.56-10.38-56.32-26.19-70.75-40.81-14.43-14.62-17.19-37.15-17.19-37.15" />
            <path class="s" d="m327.12,298.65c-9.53-7.29-9.59-12.17-13.98-19.23" />
            <path class="s" d="m394.39,358.33c-41.38-3.55-105.01,1.39-177.94,12.06" />
            <path class="s"
                d="m380.64,373.31c-56.88-.15-85.54-2.72-147.59,13.28-16.42,4.24-30.06,9.33-41.24,14.53" />
            <line class="s" x1="339.15" y1="561.15" x2="288.87" y2="590.53" />
            <path class="s" d="m387.76,564.82c-23.08,6.36-51.69,12.54-74.44,11.43" />
            <path class="s" d="m415.88,571.53c-35.59,12.5-79.68,15.78-112.77,10.68" />
            <path class="s" d="m408.88,592.31c-36.89,20.38-62.48,30.63-100.67,34.4" />
            <path class="s" d="m390.33,602.14c-36.13,9.56-77.37,11.23-91.34,7.33" />
            <path class="s" d="m496.36,583.85c-42.75,31.41-82.48,52.95-171.41,54.93" />
            <path class="s" d="m499.33,584.81c-49.09,41.71-118.65,66.22-166.48,58.71" />
            <path class="s" d="m504.73,586.59c-79.98,65.83-149.15,62.47-159.62,62.67" />
            <path class="s"
                d="m346.07,393.28c-36.34-6.28-75.89-8.46-113.21-1.14-20.72,4.06-33.23,8.36-40.26,11.39" />
            <path class="s" d="m294.51,389.76c-22.13.99-57.71-.59-99.21,15.61" />
            <path class="s"
                d="m343.57,394.57c-44.12-1.45-105.18,9.02-125.93,22.66-5.89,3.87-11.35,7.14-16.15,9.83" />
            <path class="s" d="m275.93,390.32c-39.12,5.37-65.94,14.07-80.6,25.23" />
            <path class="s" d="m263.09,441.38c-31.03-.04-61.66-11.7-61.66-11.7" />
            <path class="s" d="m245.89,474.75c-8.69-1.19-24.5-4.95-24.5-4.95" />
            <path class="s" d="m265.55,486.63c-25.98,5.5-36.06,9.85-36.06,9.85" />
            <path class="s" d="m274.32,491.4c-9.45,2.12-32.18,5.48-41.07,10.82" />
            <line class="s" x1="253.25" y1="495.67" x2="248.68" y2="515.35" />
            <path class="s" d="m315.4,510.85s-61.6,21.79-66.35,25.55" />
            <path class="s" d="m471.34,575.85c-13.79,12.33-28.59,21.77-28.59,21.77" />
            <line class="s" x1="535.4" y1="328.87" x2="531.19" y2="331.83" />
        </g>
        <path class="s" d="m587.8,247.57c2.96,9.98,3.85,20.45,4.05,27.57" />
        <path class="s"
            d="m590.86,259.23c2.77,9.78,2.47,16.7,2.47,16.7h5.93c.69-3.06,1.49-21.05-3.26-34.68" />
        <path class="s" d="m562.1,276.82l1.88,6.42,2.67-1.38c-1.09-4.94-3.46-22.43-1.19-33.5" />
        <path class="s" d="m556.01,246.78c-2.6,9.29-5.86,28.06-2.7,43.18" />
        <path class="s" d="m555.47,221.97c-7.44,11.56-17.82,43.58-9.96,76.33l4.12-1.63" />
        <path class="s" d="m578.01,209.97c6.77-2.22,13.26-3.11,23.73,9.34" />
        <path class="s" d="m577.45,208.11c20.08-8.45,30.19-3.68,42.37,9.31" />
        <path class="s"
            d="m566.65,236.6c-3.36,19.76.79,42.1,2.17,45.26l5.04-1.98c2.08-7.21,3.56-14.23,4.15-27.96" />
        <path class="s"
            d="m577.23,262.77c-.8,12.26-1.99,16.61-1.99,16.61l1.78-.89c2.17-6.62,4.35-23.91,2.91-44.07" />
        <path class="s"
            d="m580.4,251.02c.58,8.5-1.6,27.08-1.6,27.08l2.27-.79c3.56-22.33,4.94-43.28-4.94-61.86" />
        <path class="s" d="m583.13,238.45c4.57,10.3,7.73,31.54,7.73,37.47" />
        <path class="s" d="m584.54,215.45c11.46,15.22,17.39,26.48,24.9,57.61" />
        <path class="s" d="m563.19,227.41c-4.05,14.92-9.68,31.23-1.48,56.42" />
        <path class="s" d="m566.16,217.43c-8.2,14.23-11.36,27.67-10.57,43.18s5.23,26.28,5.23,26.28" />
        <path class="s" d="m563.19,222.57c-5.04,10.38-19.96,39.13-10.47,68.58" />
        <path class="s"
            d="m572.48,209.52c-7.41-2.37-16.3,2.37-29.35,16.01-13.04,13.64-27.72,64.77-31.57,88.34-2.18,13.36-3.7,23.71-3.69,32.9" />
        <path class="s" d="m509.33,330.02c-11.16,6.18-36.85,17.84-46.14,19.13" />
        <path class="s" d="m508.26,338.04c-8.01,3.8-34.4,13.28-43.19,13.87" />
        <path class="s" d="m508.09,340.76c-7.55,3.94-29.68,11.94-40.65,13.52" />
        <path class="s" d="m507.88,345.44c-10.1,4.6-22.65,8.16-25.52,8.55" />
        <path class="s" d="m516.02,344.4l-2.24.93s-20.91,7.89-29.72,8.33" />
        <path class="s" d="m534.28,248.23c-6.56,15.54-24.6,62.21-26.32,94.68" />
        <path class="s" d="m529.58,266.6c-5.57,15.99-10.61,43.41-11.35,54.83" />
        <path class="s" d="m527.57,288.97s-13.78,41.65-14.38,63.88" />
        <line class="s" x1="551.14" y1="291.49" x2="536.61" y2="329.43" />
        <path class="s" d="m545.5,298.31s-8,30.09-13.04,41.21" />
        <path class="s" d="m542.54,302.01s-4.57,13.99-8.73,34.27" />
        <path class="s" d="m540.86,307.57s-11.81,27.5-14.33,39.06" />
        <path class="s" d="m531.42,323.21c-2.22,6.52-4.27,20.91-4.27,20.91" />
        <path class="s" d="m529.5,307.94c-5.19,16.01-11.71,33.2-13.19,43.28" />
        <path class="s" d="m526.54,316.84c.58.74-6.68,32.31-6.68,32.31" />
        <path class="s" d="m557,309.27c-8.68,9.93-19.64,18.21-19.64,18.21" />
        <line class="s" x1="537.57" y1="319.78" x2="535.25" y2="321.21" />
        <line class="s" x1="537.06" y1="321.84" x2="534.42" y2="323.31" />
        <path class="s" d="m563.48,314.46c-12.04,10.53-22.57,18.16-29.38,21.09" />
        <line class="s" x1="517.55" y1="324.8" x2="509.11" y2="330.16" />
        <path class="s" d="m563.69,316.54c-5.43,5.14-12.35,11.56-14.92,13.14" />
        <path class="s" d="m547.58,270.09c-1.28,9.69-.49,21.45.4,27.33" />
        <path class="s" d="m544.47,234.42c-5.34,17.34-12.3,51.58-7.26,69.22" />
        <path class="s" d="m543.09,283.24l.93,16.9-3.26,1.88c-4-15.42-3.71-25.2-2.13-43.43" />
        <path class="s"
            d="m546.9,229.09c-9.85,14.08-11.92,24.16-13.56,39.28-1.63,15.12.37,26.09,2.11,35.28" />
        <path class="s" d="m537.3,247.57c-4.34,11.66-10.82,33.87-3.99,62.43" />
        <path class="s" d="m535.82,244.26c-5.93,14.08-8.89,33.94-7.31,46.39s3.75,17.39,5.73,21.25" />
        <path class="s" d="m552.45,295.2c-1.76,4.59-6.53,9.91-6.53,9.91" />
        <path class="s" d="m554.45,304.42c-4.94,5.59-12.91,12.13-12.91,12.13" />
        <path class="s" d="m517.04,333.58c-2.08,10.08-.42,15.74-.42,15.74" />
        <path class="s" d="m528.94,333.5c-1.67,3.79-6.5,8.46-8.31,12.28" />
        <line class="s" x1="534.09" y1="335.55" x2="528.96" y2="338.2" />
        <line class="s" x1="524.23" y1="329.5" x2="521.89" y2="330.65" />
        <line class="s" x1="523.34" y1="331.95" x2="521.15" y2="332.93" />
        <line class="s" x1="522.46" y1="337.62" x2="519.09" y2="339.54" />
        <line class="s" x1="513.78" y1="342.33" x2="507.88" y2="345.44" />
        <line class="s" x1="515.01" y1="337.14" x2="508.09" y2="340.76" />
        <line class="s" x1="515.52" y1="334.38" x2="508.26" y2="338.04" />
        <line class="s" x1="527.94" y1="339.07" x2="523.58" y2="341.26" />
        <line class="s" x1="521.57" y1="341.63" x2="517.95" y2="343.62" />
        <path class="s" d="m558.38,270.09s.31,7.89,1.52,14.28" />
        <path class="s" d="m549.63,268.96c-1.75,9.34-.77,23.42,0,27.72" />
        <path class="s" d="m571.59,322.86c-5.24,5.34-9.39,8.7-9.39,8.7" />
        <path class="s"
            d="m651.82,281.78c10.29,24.98,19.78,40.39,36.18,55.81,16.4,15.42,63.83,41.7,81.82,57.91s25.18,18.33,36.8,46.12c11.62,27.79,3.52,73.45-7.75,87.28" />
        <path class="s"
            d="m650.84,300.43c18.58,28.26,32.81,38.93,46.64,47.63s55.14,31.23,69.57,40.91,44.07,34.78,56.32,65.02c12.25,30.24-8.5,78.66-45.46,91.5" />
        <path class="s"
            d="m703.02,388.38c25.49,24.11,73.95,69.08,71.34,122.53-1.1,22.63-4.15,45.65-27.47,74.31" />
        <path class="s"
            d="m737.4,582.85s19.17-27.67,19.76-66.6c.59-38.93-25.89-85.77-39.13-104.74s-28.06-29.45-54.35-60.48" />
        <path class="s" d="m664.81,352.34c19.73,35.34,43.15,81.89,46.41,123.98s-8.3,72.04-8.3,72.04" />
        <path class="s" d="m688.69,410.51c13.04,32.02,27.8,74.34,16.72,129.96" />
        <path class="s"
            d="m656.97,397.86c9.09,21.94,19.96,60.08,21.15,93.08,1,27.71-1.07,63.93-17.8,79.27l23.37-6.96c8.92-14.98,16.01-32.14,18.34-42.67,4.55-20.55-.4-64.63-10.17-102.14" />
        <path class="s" d="m654.31,382.14c6.02,29.76,9.77,71.85-5.84,108.41" />
        <path class="s" d="m644.12,382.84c8.89,22.73,16.09,66.95,5.57,104.72" />
        <path class="s" d="m654.85,451.24c-4.01,20.15-10.73,32.4-10.73,32.4" />
        <path class="s" d="m639.75,386.76c3.78,26.33,6.52,69.35,2.39,93.29" />
        <path class="s" d="m636.99,225.97c4.53,10.49,4.75,22.64,1.65,31.88" />
        <path class="s" d="m640.74,250.36c.07,5.93-.74,11.89-.74,11.89" />
        <path class="s" d="m639.62,266.55c-.51,3.3-1.03,11.23-6.59,18.79" />
        <line class="s" x1="643.48" y1="276.22" x2="634.5" y2="283.14" />
        <path class="s" d="m645.06,276.29c-1.72,2.57-3.75,5.2-6.11,7.93" />
        <path class="s" d="m652.82,249.02c.54,9.16-1.39,17.06-6.58,25.45" />
        <path class="s" d="m637.4,225.31c6.52,14.38,16.16,34.98,45.95,33.57" />
        <path class="s"
            d="m645.55,234.57c12.3,16.45,21.05,21.27,32.91,23.64,4.22.84,8.24.36,11.67-.62" />
        <path class="s" d="m649.48,234.05c2.37,4.89,3.08,9.07,3.08,9.07" />
        <path class="s" d="m674.92,258.66c1.14,5.87,1.5,11.98.57,17.93" />
        <path class="s" d="m642.89,215.83c5.03-.45,9.18.58,15.26,7.18,4.31,4.68,13,18.4,16.43,34.01" />
        <path class="s" d="m672.37,258.32c2.9,8.73,4.41,17.86,1.89,25.02" />
        <path class="s" d="m663.98,239.17c2.53,4.83,5.46,10.9,7.73,17.27" />
        <path class="s" d="m668.07,257.19c.1,7.54-1.63,16.18-7.17,22.81" />
        <path class="s" d="m665.49,243.09c1.16,2.65,2.2,6.93,2.5,11.87" />
        <path class="s" d="m666.02,256.78c.44,4.7.23,13.18-1.3,17.2" />
        <path class="s" d="m666.17,264.22c-1.5,6.15-3.28,10.44-7.87,14.67" />
        <path class="s" d="m663.86,267.33c-1.33,3.93-3.43,9.37-3.43,9.37" />
        <path class="s" d="m652.83,254.5c-.14,11.5-.16,14.96-4.67,23.09" />
        <path class="s" d="m656.13,263.38c-1.12,5.86-3.09,11.33-7.12,15.48" />
        <path class="s" d="m655.37,267.51c-.93,4.89-3.56,14.27-3.56,14.27,0,0,7.17-6.7,10.07-8.94" />
        <path class="s"
            d="m613.86,267.81c-1.76,10.58-6.7,25.9-22.01,44.08-7.5,8.91-14.75,14.18-23.09,17.88" />
        <path class="s"
            d="m616.06,273.85c-3.85,15.12-7.55,21.94-20.92,38.44-4.89,6.03-12.57,10.79-20.36,14.41" />
        <path class="s" d="m610.5,289.96c-2.25,8.7-12.33,35.57-28.04,47.04" />
        <line class="s" x1="642.82" y1="276.73" x2="640.89" y2="280.56" />
        <path class="s" d="m648.01,279.63c-.65.67-1.36,1.29-2.13,1.87" />
        <path class="s" d="m633.73,270.78c-.68,23.53-5.62,47.04-32.4,62.06" />
        <path class="s"
            d="m631.47,275.73c-2.17,15.61-6.36,30.72-15.91,42.49-4.97,6.13-12.86,12.3-20.79,17.12" />
        <path class="s" d="m618.73,301.42c-13.93,31.62-28.76,33.7-32.81,35.97" />
        <path class="s"
            d="m652.02,302.21c10.48,31.03,34.79,64.62,47.04,77.47,5.21,5.47,13.33,15.16,20.93,24.49" />
        <path class="s" d="m638.31,306.86c5.48,16.99,15.09,32.53,25.38,44.17" />
        <path class="s" d="m633.79,284.24c.42,5.9,1.46,11.76,3,17.48" />
        <path class="s" d="m630.45,296.04c7.94,38.98,23.95,89.38,27.9,95.9" />
        <line class="s" x1="624.29" y1="310.99" x2="627.62" y2="322.47" />
        <path class="s" d="m595.14,231.54c4.32,13.06,7.97,30.45,6.1,43.59" />
        <path class="s" d="m604.44,254.53c2.92,13.69,3.02,22.7,3.02,22.7,0,0-2.96-16.62-8.18-30.45" />
        <path class="s" d="m605.58,308.73c-5.93,11.36-11.59,19.65-18.59,24.4" />
        <path class="s" d="m647.44,278.88c-.64,1.11-1.36,2.32-2.18,3.65" />
        <path class="s" d="m600.74,317.36s-8.2,15.98-14.03,19.63" />
        <path class="s" d="m609.31,204.78c7.42,2.96,16.86,8.32,16.86,8.32" />
        <line class="s" x1="630.28" y1="215.55" x2="632.88" y2="216.93" />
        <path class="s" d="m613.86,250.8c1.08,7.04.48,13.27.48,13.27" />
        <path class="s" d="m632.01,245.1c-1.92,8.4-3.44,15.63-6.68,24.17" />
        <path class="s" d="m624.31,271.87s-5.58,9.79-6.77,10.68" />
        <path class="s" d="m634.44,267.25c-2.74,5.56-7.12,9.59-15.79,13.91" />
        <path class="s" d="m633.02,269.75c-1.33,3.14-6.15,10.47-6.15,10.47" />
        <path class="s" d="m637.21,262.97c-1.45,4.44-3.87,9.68-8.93,15.08" />
        <path class="s" d="m401.14,350.71c-27.38-7.98-65.08-28.59-73.39-68.12" />
        <path class="s"
            d="m400.05,351.91c-36.56-10.38-56.32-26.19-70.75-40.81-14.43-14.62-17.19-37.15-17.19-37.15" />
        <path class="s" d="m327.12,298.65c-9.53-7.29-9.59-12.17-13.98-19.23" />
        <path class="s" d="m394.39,358.33c-41.38-3.55-105.01,1.39-177.94,12.06" />
        <path class="s"
            d="m380.64,373.31c-56.88-.15-85.54-2.72-147.59,13.28-16.42,4.24-30.06,9.33-41.24,14.53" />
        <line class="s" x1="339.15" y1="561.15" x2="288.87" y2="590.53" />
        <path class="s" d="m387.76,564.82c-23.08,6.36-51.69,12.54-74.44,11.43" />
        <path class="s" d="m415.88,571.53c-35.59,12.5-79.68,15.78-112.77,10.68" />
        <path class="s" d="m408.88,592.31c-36.89,20.38-62.48,30.63-100.67,34.4" />
        <path class="s" d="m390.33,602.14c-36.13,9.56-77.37,11.23-91.34,7.33" />
        <path class="s" d="m496.36,583.85c-42.75,31.41-82.48,52.95-171.41,54.93" />
        <path class="s" d="m499.33,584.81c-49.09,41.71-118.65,66.22-166.48,58.71" />
        <path class="s" d="m504.73,586.59c-79.98,65.83-149.15,62.47-159.62,62.67" />
        <path class="s"
            d="m346.07,393.28c-36.34-6.28-75.89-8.46-113.21-1.14-20.72,4.06-33.23,8.36-40.26,11.39" />
        <path class="s" d="m294.51,389.76c-22.13.99-57.71-.59-99.21,15.61" />
        <path class="s"
            d="m343.57,394.57c-44.12-1.45-105.18,9.02-125.93,22.66-5.89,3.87-11.35,7.14-16.15,9.83" />
        <path class="s" d="m275.93,390.32c-39.12,5.37-65.94,14.07-80.6,25.23" />
        <path class="s" d="m263.09,441.38c-31.03-.04-61.66-11.7-61.66-11.7" />
        <path class="s" d="m245.89,474.75c-8.69-1.19-24.5-4.95-24.5-4.95" />
        <path class="s" d="m265.55,486.63c-25.98,5.5-36.06,9.85-36.06,9.85" />
        <path class="s" d="m274.32,491.4c-9.45,2.12-32.18,5.48-41.07,10.82" />
        <line class="s" x1="253.25" y1="495.67" x2="248.68" y2="515.35" />
        <path class="s" d="m315.4,510.85s-61.6,21.79-66.35,25.55" />
        <path class="s" d="m471.34,575.85c-13.79,12.33-28.59,21.77-28.59,21.77" />
        <line class="s" x1="535.4" y1="328.87" x2="531.19" y2="331.83" />
        <g class="y">
            <path class="x"
                d="m561.14,268c-5.34-2.14-8.08-1.56-12.08-1.04,6.52-1.7,8.16-1.56,12.08,1.04Z" />
            <path class="x"
                d="m606.27,253.29c-14.04-2.03-23.31,2.33-30.53,8.45,7.16-4.35,14.53-9.14,30.63-8.45" />
        </g>
        <path class="x"
            d="m561.14,268c-5.34-2.14-8.08-1.56-12.08-1.04,6.52-1.7,8.16-1.56,12.08,1.04Z" />
        <path class="x"
            d="m606.27,253.29c-14.04-2.03-23.31,2.33-30.53,8.45,7.16-4.35,14.53-9.14,30.63-8.45" />
    </g>
    <g id="g">
        <g class="ac">
            <path class="p"
                d="m633.45,216.93c-7.31,4.55-11.56,12.85-14.58,17.49s-8.89,15.91-10.25,24.8c-1.36,8.89,15.54,13.34,18.7,12.55s5.34-2.82,5.34-2.82c0,0,1.48-5.98,2.27-13.98s2.47-35.67,2.47-35.67" />
            <path class="p"
                d="m636.59,218.42c-3.11,1.56-6.3,5.71-10.23,10.01s-9.87,16.08-11.57,19.71-3.85,11.73-2.14,13.87,2.69,3.77,7.16,5.62,8.1,2.52,8.92.3,2.82-13.22,3.48-20.36,2.96-27.74,2.96-27.74" />
            <path class="p" d="m632.23,221.92c-2.02,6.21-1.79,16.21.13,24.07" />
            <path class="p" d="m493.35,301.53c-13.44,8.3-46.31,26.12-46.31,26.12" />
            <line class="p" x1="487.42" y1="307.05" x2="448.77" y2="330.61" />
            <path class="p"
                d="m610.62,302.85c3.11-1.63,4.79-3.16,6.08-2.03s.15,5.39.15,6.47-1.98-1.24-1.98-1.24l-1.73.84-2.52-4.05Z" />
            <path class="p" d="m612.15,305.92c-2.08,2.57-5.14,5.39-5.14,5.39" />
            <path class="p"
                d="m635.13,304.43c1.14-1.48,2.12-4.35,3.56-4.2s2.03,3.01,2.82,4.94l-3.66,1.93-2.72-2.67Z" />
            <path class="p" d="m637.6,306.86c-.54,2.27-2.17,5.33-2.17,5.33" />
            <path class="p" d="m633.45,216.93c2.17.15,3.41,0,4.15,2.08" />
            <path class="p" d="m636.27,215.45c2.42.2,3.01.2,3.75,1.48" />
            <path class="p" d="m633.75,216.59c2.17-1.19,3.07-1.3,3.66-1.14s1.63-.94,1.63-.94" />
            <path class="p" d="m637.6,218.42c2.17-1.09,5.88-2.87,5.88-2.87" />
            <line class="p" x1="639.03" y1="214.51" x2="643.48" y2="215.45" />
            <path class="p" d="m635.39,249.52c3.42,10.02,6.38,20.69,20.69,39.22" />
            <path class="p" d="m634.74,256.74c2.96,6.51,10.32,21.65,19.88,30.1" />
            <path class="p"
                d="m656.08,288.75s44.91,32.98,47.43,36.54,23.86,30.83,30.98,43.13l6.08,1.04s-30.98-44.17-34.98-47.43-33.63-25.66-50.96-35.19" />
            <path class="p"
                d="m656.67,221.48c9.98,5.93,32.51,22.63,33.5,24.01s-5.1,15.4-14.35,19.49" />
            <path class="p" d="m668.43,260.41c2.87,3.06,5.9,4.88,5.9,4.88" />
            <path class="p" d="m669.49,257.75c2.5,2.66,3.8,3.52,3.8,3.52" />
            <path class="p"
                d="m662.07,228.12c10.02,6.4,22.66,14.5,24.94,19.25,0,0-4.27,11.36-11.52,14.67" />
            <path class="p" d="m666.2,234.99c9.14,8.03,18.62,16.97,18.62,16.97" />
            <line class="p" x1="671.13" y1="245.66" x2="682.74" y2="255.34" />
            <path class="p" d="m686.99,253.96s27.59,26.32,39.94,33.33" />
            <path class="p" d="m685.11,256.8c13.36,10.83,37.66,28.61,46.16,34.05" />
            <path class="p"
                d="m715.41,279.06c13.89,7.34,50.64,30.79,58.76,37.67,7.81,6.62,29.55,26.48,29.55,26.48l-7.51-.3c-22.93-25.89-66.37-53.02-66.37-53.02" />
            <path class="p"
                d="m538.98,230.99c-11.07,2.44-25.89,11.63-34.88,20.13-2.78,2.63-4.65,5.52-5.91,8.26,0,0,6.11,8.15,8.38,9.83s9.29,6.62,9.78,6.52,1.72.7,6.1-5.28" />
            <path class="p" d="m537.5,233.45c-4.44.38-11.54,2.34-14.58,4.11" />
            <path class="p"
                d="m530.42,234.78c-10.61,5.37-24.54,17.13-27.9,23.55,0,0,2.47,5.63,8.7,9.88s7.48,6.35,11.6,1.1" />
            <path class="p" d="m527.31,256.23c-2.06,2.4-11.25,15.32-11.25,15.32" />
            <line class="p" x1="525.24" y1="262.02" x2="517.74" y2="271.18" />
            <path class="p" d="m513.87,274.31c-10.86,17.53-23.81,32.06-28.85,34.23" />
            <path class="p" d="m517.17,275.65c-8.92,12.83-17.72,23.59-29.18,30.95" />
            <path class="p"
                d="m626.73,222.86c2.08-2.37,3.19-6.67,3.48-8.89s-.37-2.52-1.85-2-5.41,3.11-7.78,4.82-3.78,7.56-3.78,7.56l-1.93-1.04-.74,1.48s-.07.44-2.82-2.22-8.37-2.89-11.19-3.26-6.13-1.21-6.6,0c-.37.96,3.11,6.65,10.45,8.1,0,0,1.36,7.53,5.46,5.76l-.94,2.15.94,1.7s-.79,3.48,1.66,3.34c0,0-.44,1.78,2.22,1.56l-.37,3.19" />
            <path class="p"
                d="m627.84,226.57c.74,1.11.3,2.22-1.93,2.89,0,0,3.11,1.04,2.67,3.63,0,0,2.96,1.78.52,2.89,0,0,1.63,1.78-1.11,2.96l-6.08-2.35-.44-1.06" />
            <line class="p" x1="628.85" y1="238.45" x2="631.59" y2="242.17" />
            <line class="p" x1="627.99" y1="238.94" x2="632.01" y2="244.4" />
        </g>
        <path class="p"
            d="m633.45,216.93c-7.31,4.55-11.56,12.85-14.58,17.49s-8.89,15.91-10.25,24.8c-1.36,8.89,15.54,13.34,18.7,12.55s5.34-2.82,5.34-2.82c0,0,1.48-5.98,2.27-13.98s2.47-35.67,2.47-35.67" />
        <path class="p"
            d="m636.59,218.42c-3.11,1.56-6.3,5.71-10.23,10.01s-9.87,16.08-11.57,19.71-3.85,11.73-2.14,13.87,2.69,3.77,7.16,5.62,8.1,2.52,8.92.3,2.82-13.22,3.48-20.36,2.96-27.74,2.96-27.74" />
        <path class="p" d="m632.23,221.92c-2.02,6.21-1.79,16.21.13,24.07" />
        <path class="p" d="m493.35,301.53c-13.44,8.3-46.31,26.12-46.31,26.12" />
        <line class="p" x1="487.42" y1="307.05" x2="448.77" y2="330.61" />
        <path class="p"
            d="m610.62,302.85c3.11-1.63,4.79-3.16,6.08-2.03s.15,5.39.15,6.47-1.98-1.24-1.98-1.24l-1.73.84-2.52-4.05Z" />
        <path class="p" d="m612.15,305.92c-2.08,2.57-5.14,5.39-5.14,5.39" />
        <path class="p"
            d="m635.13,304.43c1.14-1.48,2.12-4.35,3.56-4.2s2.03,3.01,2.82,4.94l-3.66,1.93-2.72-2.67Z" />
        <path class="p" d="m637.6,306.86c-.54,2.27-2.17,5.33-2.17,5.33" />
        <path class="p" d="m633.45,216.93c2.17.15,3.41,0,4.15,2.08" />
        <path class="p" d="m636.27,215.45c2.42.2,3.01.2,3.75,1.48" />
        <path class="p" d="m633.75,216.59c2.17-1.19,3.07-1.3,3.66-1.14s1.63-.94,1.63-.94" />
        <path class="p" d="m637.6,218.42c2.17-1.09,5.88-2.87,5.88-2.87" />
        <line class="p" x1="639.03" y1="214.51" x2="643.48" y2="215.45" />
        <path class="p" d="m635.39,249.52c3.42,10.02,6.38,20.69,20.69,39.22" />
        <path class="p" d="m634.74,256.74c2.96,6.51,10.32,21.65,19.88,30.1" />
        <path class="p"
            d="m656.08,288.75s44.91,32.98,47.43,36.54,23.86,30.83,30.98,43.13l6.08,1.04s-30.98-44.17-34.98-47.43-33.63-25.66-50.96-35.19" />
        <path class="p" d="m656.67,221.48c9.98,5.93,32.51,22.63,33.5,24.01s-5.1,15.4-14.35,19.49" />
        <path class="p" d="m668.43,260.41c2.87,3.06,5.9,4.88,5.9,4.88" />
        <path class="p" d="m669.49,257.75c2.5,2.66,3.8,3.52,3.8,3.52" />
        <path class="p"
            d="m662.07,228.12c10.02,6.4,22.66,14.5,24.94,19.25,0,0-4.27,11.36-11.52,14.67" />
        <path class="p" d="m666.2,234.99c9.14,8.03,18.62,16.97,18.62,16.97" />
        <line class="p" x1="671.13" y1="245.66" x2="682.74" y2="255.34" />
        <path class="p" d="m686.99,253.96s27.59,26.32,39.94,33.33" />
        <path class="p" d="m685.11,256.8c13.36,10.83,37.66,28.61,46.16,34.05" />
        <path class="p"
            d="m715.41,279.06c13.89,7.34,50.64,30.79,58.76,37.67,7.81,6.62,29.55,26.48,29.55,26.48l-7.51-.3c-22.93-25.89-66.37-53.02-66.37-53.02" />
        <path class="p"
            d="m538.98,230.99c-11.07,2.44-25.89,11.63-34.88,20.13-2.78,2.63-4.65,5.52-5.91,8.26,0,0,6.11,8.15,8.38,9.83s9.29,6.62,9.78,6.52,1.72.7,6.1-5.28" />
        <path class="p" d="m537.5,233.45c-4.44.38-11.54,2.34-14.58,4.11" />
        <path class="p"
            d="m530.42,234.78c-10.61,5.37-24.54,17.13-27.9,23.55,0,0,2.47,5.63,8.7,9.88s7.48,6.35,11.6,1.1" />
        <path class="p" d="m527.31,256.23c-2.06,2.4-11.25,15.32-11.25,15.32" />
        <line class="p" x1="525.24" y1="262.02" x2="517.74" y2="271.18" />
        <path class="p" d="m513.87,274.31c-10.86,17.53-23.81,32.06-28.85,34.23" />
        <path class="p" d="m517.17,275.65c-8.92,12.83-17.72,23.59-29.18,30.95" />
        <path class="p"
            d="m626.73,222.86c2.08-2.37,3.19-6.67,3.48-8.89s-.37-2.52-1.85-2-5.41,3.11-7.78,4.82-3.78,7.56-3.78,7.56l-1.93-1.04-.74,1.48s-.07.44-2.82-2.22-8.37-2.89-11.19-3.26-6.13-1.21-6.6,0c-.37.96,3.11,6.65,10.45,8.1,0,0,1.36,7.53,5.46,5.76l-.94,2.15.94,1.7s-.79,3.48,1.66,3.34c0,0-.44,1.78,2.22,1.56l-.37,3.19" />
        <path class="p"
            d="m627.84,226.57c.74,1.11.3,2.22-1.93,2.89,0,0,3.11,1.04,2.67,3.63,0,0,2.96,1.78.52,2.89,0,0,1.63,1.78-1.11,2.96l-6.08-2.35-.44-1.06" />
        <line class="p" x1="628.85" y1="238.45" x2="631.59" y2="242.17" />
        <line class="p" x1="627.99" y1="238.94" x2="632.01" y2="244.4" />
        <g class="ab">
            <path class="w"
                d="m553.8,288.82s-3.04-4.82-4.67-4.97l2.22-1.93-3.41,1.48,1.04-1.26s3.93-3.04,7.26-2.96,6.97.89,9.78,4.22l-1.78-1.04,1.63,2.59s-3.46-3.95-9.26-2.59-2.82,6.45-2.82,6.45Z" />
            <path class="w"
                d="m583.74,279.79c1.05-.83,2.21-1.7,3.49-2.61,10.89-7.71,19.57-5.26,21.27-4.52s-.67,8.97-.67,8.97c0,0,2-4.89,2.89-7.71s4.95-5.09,4.95-5.09l-7.03-.62,6.96-.52c-3.89-.17-8.26-.2-12.22.14-10.3.89-14.75,4.37-19.57,7.63l1.78-.44-1.56,1.33,1.93-.67-1.56,1.33,1.78-.67-1.63,1.48,1.85-.82-2.67,2.75Z" />
            <path class="w"
                d="m564.18,283.6c3.19,4.93.52,10.78.52,10.78l-3.34,1.41c-1.56-1.48-5.71-7.34-4.59-13.93,0,0,4.22-3.19,7.41,1.74Zm-6.06-1.47c-1.06,3.21,1.02,11.58,3.54,12.03s3.71-1.26,3.56-4.08-.24-8.37-5.75-8.33l-1.34.39Z" />
            <path class="w"
                d="m592.69,272.91c.4-.89,7.26-2.08,11.36-2.87s4,2.72,3.8,7.07-4.05,8.89-5.73,10.28-7.02,0-7.02,0c-1.63-2.12-3.95-7.36-2.72-13.23,0,0-.1-.36.29-1.25Zm1.21.59c-1.01,3.75-.87,10.23,2.74,12.7s9.94-3.41,10.75-10.78c.81-7.37-13.49-1.92-13.49-1.92Z" />
            <path class="w"
                d="m562.77,286.93c.06-.23.19-.43.37-.57-.38-.73-1.61-1.85-2.67-1.06-.43.32-.56.93-.63,1.85-.07.93,1.15,4.37,2.89,4.34,1.02-.02,1.1-1.48.94-2.82-.6-.54-.99-1.38-.9-1.73Z" />
            <path class="w"
                d="m600.44,275.18c1.78-.2,3.46.25,2.52,3.41s-2.87,6.62-5.04,3.56-.35-6.03.79-6.52,1.73-.44,1.73-.44Z" />
            <polygon class="w" points="560.47 295.64 565.44 294.16 561.07 296.31 560.47 295.64" />
        </g>
        <path class="w"
            d="m553.8,288.82s-3.04-4.82-4.67-4.97l2.22-1.93-3.41,1.48,1.04-1.26s3.93-3.04,7.26-2.96,6.97.89,9.78,4.22l-1.78-1.04,1.63,2.59s-3.46-3.95-9.26-2.59-2.82,6.45-2.82,6.45Z" />
        <path class="w"
            d="m583.74,279.79c1.05-.83,2.21-1.7,3.49-2.61,10.89-7.71,19.57-5.26,21.27-4.52s-.67,8.97-.67,8.97c0,0,2-4.89,2.89-7.71s4.95-5.09,4.95-5.09l-7.03-.62,6.96-.52c-3.89-.17-8.26-.2-12.22.14-10.3.89-14.75,4.37-19.57,7.63l1.78-.44-1.56,1.33,1.93-.67-1.56,1.33,1.78-.67-1.63,1.48,1.85-.82-2.67,2.75Z" />
        <path class="w"
            d="m564.18,283.6c3.19,4.93.52,10.78.52,10.78l-3.34,1.41c-1.56-1.48-5.71-7.34-4.59-13.93,0,0,4.22-3.19,7.41,1.74Zm-6.06-1.47c-1.06,3.21,1.02,11.58,3.54,12.03s3.71-1.26,3.56-4.08-.24-8.37-5.75-8.33l-1.34.39Z" />
        <path class="w"
            d="m592.69,272.91c.4-.89,7.26-2.08,11.36-2.87s4,2.72,3.8,7.07-4.05,8.89-5.73,10.28-7.02,0-7.02,0c-1.63-2.12-3.95-7.36-2.72-13.23,0,0-.1-.36.29-1.25Zm1.21.59c-1.01,3.75-.87,10.23,2.74,12.7s9.94-3.41,10.75-10.78c.81-7.37-13.49-1.92-13.49-1.92Z" />
        <path class="w"
            d="m562.77,286.93c.06-.23.19-.43.37-.57-.38-.73-1.61-1.85-2.67-1.06-.43.32-.56.93-.63,1.85-.07.93,1.15,4.37,2.89,4.34,1.02-.02,1.1-1.48.94-2.82-.6-.54-.99-1.38-.9-1.73Z" />
        <path class="w"
            d="m600.44,275.18c1.78-.2,3.46.25,2.52,3.41s-2.87,6.62-5.04,3.56-.35-6.03.79-6.52,1.73-.44,1.73-.44Z" />
        <polygon class="w" points="560.47 295.64 565.44 294.16 561.07 296.31 560.47 295.64" />
    </g>
    <g id="j">
        <g class="t">
            <path class="q" d="m611.89,225.97c-2.39-.07-7.32-1.7-6.43-3.41s6.43,3.41,6.43,3.41Z" />
            <path class="q"
                d="m620.21,220.27l-1.33,3.83s4.52-2.49,4.59-3.53-.82-1.56-.82-1.56c0,0-1.41,0-2.45,1.26Z" />
            <polygon class="q"
                points="607.86 225.97 611.89 227.11 608.35 228.42 606.72 227.2 607.86 225.97" />
            <path class="q" d="m622.83,223.21l-3.01,2.17s3.61.49,4.64-1.09-1.24-1.78-1.63-1.09Z" />
            <path class="q"
                d="m608.62,230.62c1.21.59,3.14-1.04,4.03-1.68,0,0-2.42-.25-3.21.4s-.81,1.28-.81,1.28Z" />
            <path class="q"
                d="m614.62,231.01l-1.98,1.38s-.77.94-.76,1.24.95,1.58,1.84,0,.89-2.62.89-2.62Z" />
            <path class="q"
                d="m615.17,233.14c-.84,1.83-1.73,3.71-1.09,4.35s1.14.15,1.53-.89-.44-3.46-.44-3.46Z" />
            <circle class="q" cx="620.02" cy="239.6" r="1.15" />
            <circle class="q" cx="620.8" cy="241.54" r=".71" />
            <circle class="q" cx="621.36" cy="243.43" r="1.15" />
            <circle class="q" cx="621.86" cy="245.52" r=".8" />
            <circle class="q" cx="622.41" cy="247.15" r="1.13" />
            <circle class="q" cx="622.58" cy="249.25" r=".7" />
            <circle class="q" cx="623.17" cy="251.17" r="1.11" />
            <circle class="q" cx="623.54" cy="253.21" r=".7" />
            <circle class="q" cx="623.97" cy="255.23" r="1.13" />
            <circle class="q" cx="624.14" cy="257.25" r=".67" />
            <circle class="q" cx="621.62" cy="237.35" r="1.04" />
            <circle class="q" cx="622.72" cy="238.79" r=".79" />
            <circle class="q" cx="623.77" cy="240.65" r="1.04" />
            <circle class="q" cx="624.97" cy="242.3" r=".76" />
            <circle class="q" cx="625.95" cy="244.17" r="1.15" />
            <circle class="q" cx="627" cy="245.63" r=".88" />
            <circle class="q" cx="627.95" cy="247.54" r="1.07" />
            <circle class="q" cx="628.88" cy="249.28" r=".7" />
            <path class="q"
                d="m630.56,250.45c-.2-.15-.45-.24-.72-.24-.67,0-1.2.54-1.2,1.2s.54,1.2,1.2,1.2c.16,0,.31-.03.45-.09" />
            <circle class="q" cx="621.65" cy="291.12" r="1.11" />
            <circle class="q" cx="620.91" cy="292.9" r=".74" />
            <circle class="q" cx="620.49" cy="294.75" r="1.11" />
            <circle class="q" cx="619.7" cy="296.56" r=".7" />
            <circle class="q" cx="618.73" cy="298.23" r="1.04" />
            <circle class="q" cx="617.61" cy="300.09" r=".74" />
            <circle class="q" cx="640.72" cy="291.21" r=".72" />
            <circle class="q" cx="640.59" cy="293.23" r="1.15" />
            <circle class="q" cx="640.31" cy="295.25" r=".8" />
            <circle class="q" cx="639.77" cy="297.38" r="1.15" />
            <circle class="q" cx="639.48" cy="299.27" r=".7" />
            <ellipse class="q" cx="605.71" cy="312.39" rx="1.51" ry="1.21"
                transform="translate(-66.82 202.05) rotate(-17.96)" />
            <ellipse class="q" cx="634.65" cy="313.28" rx="1.28" ry="1.04"
                transform="translate(-71.61 359.29) rotate(-30)" />
            <circle class="q" cx="624.36" cy="259.29" r="1.15" />
            <circle class="q" cx="624.52" cy="261.2" r=".8" />
            <circle class="q" cx="624.54" cy="263.22" r="1.07" />
            <circle class="q" cx="624.52" cy="265.24" r=".8" />
            <circle class="q" cx="624.78" cy="267.23" r="1.15" />
            <circle class="q" cx="624.36" cy="279.19" r="1.11" />
            <circle class="q" cx="623.78" cy="281.06" r=".76" />
            <circle class="q" cx="623.6" cy="283.28" r="1.13" />
            <circle class="q" cx="623.21" cy="285.12" r=".7" />
            <circle class="q" cx="622.95" cy="286.86" r="1.04" />
            <circle class="q" cx="622.19" cy="288.88" r=".72" />
            <circle class="q" cx="636.77" cy="267.74" r=".63" />
            <circle class="q" cx="637.44" cy="269.44" r="1.11" />
            <circle class="q" cx="637.83" cy="271.53" r=".76" />
            <path class="q" d="m637.98,274.15c-.22-.19-.36-.47-.36-.78,0-.57.46-1.04,1.04-1.04" />
            <circle class="q" cx="640.18" cy="281.15" r=".93" />
            <circle class="q" cx="640.38" cy="283.36" r=".69" />
            <circle class="q" cx="640.66" cy="285.38" r="1.07" />
            <circle class="q" cx="640.74" cy="287.15" r=".7" />
            <circle class="q" cx="640.92" cy="289.27" r="1.22" />
            <path class="q"
                d="m548.71,285.56c2.43,5.93,4.06,9.19,4.8,14.53s2.37,9.49,7.86,13.04c5.48,3.56,11.86,6.67,13.78,8.3s4.71,1.93,7.18,0" />
            <path class="q" d="m584.87,321.19c.36,1.73-.09,4.84-.09,4.84" />
            <path class="q"
                d="m558.46,334.07s-5.1-.71-8.88-1.45-7.71-.44-12.01,3.34-5.82,6.27-5.82,6.27" />
            <line class="q" x1="613.98" y1="324.35" x2="617.29" y2="325.88" />
            <path class="q"
                d="m603.95,332.65c5.04-3.36,16.8-9.93,24.95-7.16s10.97,19.52,8.2,30.34c-.86,3.35-1.02,6.84-.83,10.08" />
            <path class="q" d="m610.8,339.14c-1.85,4.74-3.41,10.45-3.11,15.86" />
            <path class="q" d="m605.83,346.04c.59,4.37,1.41,4.9,1.89,5.64" />
            <path class="q"
                d="m573.5,352.68c-1.03-1.21-2.31-2.74-3.49-4.17-2.52-3.06-8.05-6.37-10.08-8.6s-6.82-3.8-7.21-1.43,3.11,3.61,3.41,3.85,8.42,9.1,9.29,10.57,2.12,4.3,2.12,4.3" />
            <path class="q"
                d="m545.95,340.11c-1.43-2.96-1.53-4.74-.49-5.29s2.47.49,4.05,2.87,5.98,10.28,7.02,10.92,8.65,6.57,9.04,6.08" />
            <path class="q"
                d="m560.08,361.24c-1.48-2.21-3.62-4.79-5.98-6.36-3.85-2.57-5.93-7.56-7.31-11.76s-3-4.48-3.61-3.66c-.84,1.14-.3,3.61.99,6.42s1.38,4.64,1.43,6.08.79,2.92,2.08,4.4,5.29,5.88,7.36,8.25" />
            <path class="q"
                d="m563.81,379.42c-1.64-1.1-3.52-2.52-5.16-4.19-4.05-4.1-8.4-5.24-12.01-6.47s-7.41-6.62-8.99-7.11-3.46-2.52-2.87-3.21c1.23-1.43,3.36-1.24,6.97,1.14,3.61,2.37,7.46,5.48,12.1,5.43.47,0,.88-.11,1.23-.31l.2,2.04" />
            <path class="q"
                d="m445.9,333.34s-4.37-8.79-7.34-8.94c-.68-.03-1.2.22-1.59.63l5.93,14.39" />
            <path class="q" d="m438.18,327.97c-1.1,3.17-1.4,8.28-1.7,10.21s.7,4.19,1.5,5.28" />
            <path class="q" d="m439.14,324.52s1.12-3.24,2.01-3.91c0,0,2.52,2.87,1.93,7.92" />
            <path class="q"
                d="m438.56,324.39c-1.7-4.22-3.59-4.5-3.85-3.63-1.26,4.15-2.89,15.49-3.19,17.19s-.52,4.59.74,8.15" />
            <path class="q"
                d="m428.42,349.33c-.66-2.26-4.08-6.11-3.64-8.04s.38-8.58.22-11.78,2.37-1.04,2.37-1.04c1.85,2.59,2.08,4.59,2.15,7.49s.78,6.27,2.17,8.17" />
            <path class="q"
                d="m466.3,444.64c-98.07,33.85-109.53,55.39-98.66,86.82,10.87,31.42,38.74,23.32,76.29,35.57,37.55,12.25,74.41,23.28,75.69,25.3" />
            <path class="q" d="m527.01,510.07c-28.34,12.1-53.64,18.62-67.87,17.64" />
            <path class="q"
                d="m407.95,530.87c27.27-13.04,47.78-6.05,56.84.15s40.19,32.26,60.75,29.5,21.04-1.56,24.7,7.31c1.01,2.45,0,6.83-2.02,11.91" />
            <path class="q"
                d="m416.41,434.59c-60.24,31.85-94.62,69.4-102.53,77.9-7.91,8.5-13.44,45.46,26.88,48.81,40.32,3.36,73.32,4.94,76.09,6.13" />
            <path class="q" d="m369.63,536.39c-4.92,2.19-9.63,4.65-13.13,7.39" />
        </g>
        <path class="q" d="m611.89,225.97c-2.39-.07-7.32-1.7-6.43-3.41s6.43,3.41,6.43,3.41Z" />
        <path class="q"
            d="m620.21,220.27l-1.33,3.83s4.52-2.49,4.59-3.53-.82-1.56-.82-1.56c0,0-1.41,0-2.45,1.26Z" />
        <polygon class="q"
            points="607.86 225.97 611.89 227.11 608.35 228.42 606.72 227.2 607.86 225.97" />
        <path class="q" d="m622.83,223.21l-3.01,2.17s3.61.49,4.64-1.09-1.24-1.78-1.63-1.09Z" />
        <path class="q"
            d="m608.62,230.62c1.21.59,3.14-1.04,4.03-1.68,0,0-2.42-.25-3.21.4s-.81,1.28-.81,1.28Z" />
        <path class="q"
            d="m614.62,231.01l-1.98,1.38s-.77.94-.76,1.24.95,1.58,1.84,0,.89-2.62.89-2.62Z" />
        <path class="q"
            d="m615.17,233.14c-.84,1.83-1.73,3.71-1.09,4.35s1.14.15,1.53-.89-.44-3.46-.44-3.46Z" />
        <circle class="q" cx="620.02" cy="239.6" r="1.15" />
        <circle class="q" cx="620.8" cy="241.54" r=".71" />
        <circle class="q" cx="621.36" cy="243.43" r="1.15" />
        <circle class="q" cx="621.86" cy="245.52" r=".8" />
        <circle class="q" cx="622.41" cy="247.15" r="1.13" />
        <circle class="q" cx="622.58" cy="249.25" r=".7" />
        <circle class="q" cx="623.17" cy="251.17" r="1.11" />
        <circle class="q" cx="623.54" cy="253.21" r=".7" />
        <circle class="q" cx="623.97" cy="255.23" r="1.13" />
        <circle class="q" cx="624.14" cy="257.25" r=".67" />
        <circle class="q" cx="621.62" cy="237.35" r="1.04" />
        <circle class="q" cx="622.72" cy="238.79" r=".79" />
        <circle class="q" cx="623.77" cy="240.65" r="1.04" />
        <circle class="q" cx="624.97" cy="242.3" r=".76" />
        <circle class="q" cx="625.95" cy="244.17" r="1.15" />
        <circle class="q" cx="627" cy="245.63" r=".88" />
        <circle class="q" cx="627.95" cy="247.54" r="1.07" />
        <circle class="q" cx="628.88" cy="249.28" r=".7" />
        <path class="q"
            d="m630.56,250.45c-.2-.15-.45-.24-.72-.24-.67,0-1.2.54-1.2,1.2s.54,1.2,1.2,1.2c.16,0,.31-.03.45-.09" />
        <circle class="q" cx="621.65" cy="291.12" r="1.11" />
        <circle class="q" cx="620.91" cy="292.9" r=".74" />
        <circle class="q" cx="620.49" cy="294.75" r="1.11" />
        <circle class="q" cx="619.7" cy="296.56" r=".7" />
        <circle class="q" cx="618.73" cy="298.23" r="1.04" />
        <circle class="q" cx="617.61" cy="300.09" r=".74" />
        <circle class="q" cx="640.72" cy="291.21" r=".72" />
        <circle class="q" cx="640.59" cy="293.23" r="1.15" />
        <circle class="q" cx="640.31" cy="295.25" r=".8" />
        <circle class="q" cx="639.77" cy="297.38" r="1.15" />
        <circle class="q" cx="639.48" cy="299.27" r=".7" />
        <ellipse class="q" cx="605.71" cy="312.39" rx="1.51" ry="1.21"
            transform="translate(-66.82 202.05) rotate(-17.96)" />
        <ellipse class="q" cx="634.65" cy="313.28" rx="1.28" ry="1.04"
            transform="translate(-71.61 359.29) rotate(-30)" />
        <circle class="q" cx="624.36" cy="259.29" r="1.15" />
        <circle class="q" cx="624.52" cy="261.2" r=".8" />
        <circle class="q" cx="624.54" cy="263.22" r="1.07" />
        <circle class="q" cx="624.52" cy="265.24" r=".8" />
        <circle class="q" cx="624.78" cy="267.23" r="1.15" />
        <circle class="q" cx="624.36" cy="279.19" r="1.11" />
        <circle class="q" cx="623.78" cy="281.06" r=".76" />
        <circle class="q" cx="623.6" cy="283.28" r="1.13" />
        <circle class="q" cx="623.21" cy="285.12" r=".7" />
        <circle class="q" cx="622.95" cy="286.86" r="1.04" />
        <circle class="q" cx="622.19" cy="288.88" r=".72" />
        <circle class="q" cx="636.77" cy="267.74" r=".63" />
        <circle class="q" cx="637.44" cy="269.44" r="1.11" />
        <circle class="q" cx="637.83" cy="271.53" r=".76" />
        <path class="q" d="m637.98,274.15c-.22-.19-.36-.47-.36-.78,0-.57.46-1.04,1.04-1.04" />
        <circle class="q" cx="640.18" cy="281.15" r=".93" />
        <circle class="q" cx="640.38" cy="283.36" r=".69" />
        <circle class="q" cx="640.66" cy="285.38" r="1.07" />
        <circle class="q" cx="640.74" cy="287.15" r=".7" />
        <circle class="q" cx="640.92" cy="289.27" r="1.22" />
        <path class="q"
            d="m548.71,285.56c2.43,5.93,4.06,9.19,4.8,14.53s2.37,9.49,7.86,13.04c5.48,3.56,11.86,6.67,13.78,8.3s4.71,1.93,7.18,0" />
        <path class="q" d="m584.87,321.19c.36,1.73-.09,4.84-.09,4.84" />
        <path class="q"
            d="m558.46,334.07s-5.1-.71-8.88-1.45-7.71-.44-12.01,3.34-5.82,6.27-5.82,6.27" />
        <line class="q" x1="613.98" y1="324.35" x2="617.29" y2="325.88" />
        <path class="q"
            d="m603.95,332.65c5.04-3.36,16.8-9.93,24.95-7.16s10.97,19.52,8.2,30.34c-.86,3.35-1.02,6.84-.83,10.08" />
        <path class="q" d="m610.8,339.14c-1.85,4.74-3.41,10.45-3.11,15.86" />
        <path class="q" d="m605.83,346.04c.59,4.37,1.41,4.9,1.89,5.64" />
        <path class="q"
            d="m573.5,352.68c-1.03-1.21-2.31-2.74-3.49-4.17-2.52-3.06-8.05-6.37-10.08-8.6s-6.82-3.8-7.21-1.43,3.11,3.61,3.41,3.85,8.42,9.1,9.29,10.57,2.12,4.3,2.12,4.3" />
        <path class="q"
            d="m545.95,340.11c-1.43-2.96-1.53-4.74-.49-5.29s2.47.49,4.05,2.87,5.98,10.28,7.02,10.92,8.65,6.57,9.04,6.08" />
        <path class="q"
            d="m560.08,361.24c-1.48-2.21-3.62-4.79-5.98-6.36-3.85-2.57-5.93-7.56-7.31-11.76s-3-4.48-3.61-3.66c-.84,1.14-.3,3.61.99,6.42s1.38,4.64,1.43,6.08.79,2.92,2.08,4.4,5.29,5.88,7.36,8.25" />
        <path class="q"
            d="m563.81,379.42c-1.64-1.1-3.52-2.52-5.16-4.19-4.05-4.1-8.4-5.24-12.01-6.47s-7.41-6.62-8.99-7.11-3.46-2.52-2.87-3.21c1.23-1.43,3.36-1.24,6.97,1.14,3.61,2.37,7.46,5.48,12.1,5.43.47,0,.88-.11,1.23-.31l.2,2.04" />
        <path class="q" d="m445.9,333.34s-4.37-8.79-7.34-8.94c-.68-.03-1.2.22-1.59.63l5.93,14.39" />
        <path class="q" d="m438.18,327.97c-1.1,3.17-1.4,8.28-1.7,10.21s.7,4.19,1.5,5.28" />
        <path class="q" d="m439.14,324.52s1.12-3.24,2.01-3.91c0,0,2.52,2.87,1.93,7.92" />
        <path class="q"
            d="m438.56,324.39c-1.7-4.22-3.59-4.5-3.85-3.63-1.26,4.15-2.89,15.49-3.19,17.19s-.52,4.59.74,8.15" />
        <path class="q"
            d="m428.42,349.33c-.66-2.26-4.08-6.11-3.64-8.04s.38-8.58.22-11.78,2.37-1.04,2.37-1.04c1.85,2.59,2.08,4.59,2.15,7.49s.78,6.27,2.17,8.17" />
        <path class="q"
            d="m466.3,444.64c-98.07,33.85-109.53,55.39-98.66,86.82,10.87,31.42,38.74,23.32,76.29,35.57,37.55,12.25,74.41,23.28,75.69,25.3" />
        <path class="q" d="m527.01,510.07c-28.34,12.1-53.64,18.62-67.87,17.64" />
        <path class="q"
            d="m407.95,530.87c27.27-13.04,47.78-6.05,56.84.15s40.19,32.26,60.75,29.5,21.04-1.56,24.7,7.31c1.01,2.45,0,6.83-2.02,11.91" />
        <path class="q"
            d="m416.41,434.59c-60.24,31.85-94.62,69.4-102.53,77.9-7.91,8.5-13.44,45.46,26.88,48.81,40.32,3.36,73.32,4.94,76.09,6.13" />
        <path class="q" d="m369.63,536.39c-4.92,2.19-9.63,4.65-13.13,7.39" />
        <g class="ae">
            <polygon class="u"
                points="568.85 291.86 567.89 292.3 568.07 292.93 567.74 294.45 568.63 293.79 569.11 292.53 568.85 291.86" />
            <path class="u"
                d="m572.55,303.99c-.54.37.22,1.51,1.38,1.7s5.06.86,8-.99,3.53-2.03,3.29-2.82-.84-1.09-1.61.05-2.87,2.69-5.16,3.43-4.3-.44-4.57-1.16-1.04-.42-1.33-.22Z" />
        </g>
        <polygon class="u"
            points="568.85 291.86 567.89 292.3 568.07 292.93 567.74 294.45 568.63 293.79 569.11 292.53 568.85 291.86" />
        <path class="u"
            d="m572.55,303.99c-.54.37.22,1.51,1.38,1.7s5.06.86,8-.99,3.53-2.03,3.29-2.82-.84-1.09-1.61.05-2.87,2.69-5.16,3.43-4.3-.44-4.57-1.16-1.04-.42-1.33-.22Z" />
    </g>
    <g id="m">
        <g class="aa">
            <path class="o"
                d="m498.07,376.27s4.67-5.71,6.23-6.23,9.26-2.45,20.6-.59c11.34,1.85,16.58,3.58,18.52,4.86" />
            <path class="o"
                d="m489.99,383.24s4.08-4.82,4.59-5.41,4.37-1.78,6.23-1.85,12.23-3.11,14.45-2.59,6,1.41,6,1.41l.74-.22,5.93,1.7.89-.07,4.45,1.33,4.97,1.93.3,1.19,3.32,1.36" />
            <path class="o" d="m493.25,382.65c-4.15,1.26-9.12,3.19-11.26,8.6" />
            <path class="o" d="m482.24,390.67s4.57-2.09,14.43-1.5,37.46,5.79,48.75,15.86" />
            <path class="o" d="m485.99,389.65c-5.77,2.78-8.74,6.85-8.74,6.85" />
            <path class="o" d="m475.47,396.69l5.56,1.74.89-.22s29.42,2.15,47.51,11.64" />
            <path class="o"
                d="m528.84,410.25c1.43-.19,2.39-.22,2.65-.03,1.19.82,15.57,12.56,18.98,18.21" />
            <polyline class="o" points="577.1 338.39 582.95 338.43 583.05 339.97" />
            <line class="o" x1="555.82" y1="342.16" x2="553.13" y2="343.64" />
            <path class="o" d="m544.69,347.13c-7.71,3.27-23.94,15.8-28.98,21.43" />
        </g>
        <path class="o"
            d="m498.07,376.27s4.67-5.71,6.23-6.23,9.26-2.45,20.6-.59c11.34,1.85,16.58,3.58,18.52,4.86" />
        <path class="o"
            d="m489.99,383.24s4.08-4.82,4.59-5.41,4.37-1.78,6.23-1.85,12.23-3.11,14.45-2.59,6,1.41,6,1.41l.74-.22,5.93,1.7.89-.07,4.45,1.33,4.97,1.93.3,1.19,3.32,1.36" />
        <path class="o" d="m493.25,382.65c-4.15,1.26-9.12,3.19-11.26,8.6" />
        <path class="o" d="m482.24,390.67s4.57-2.09,14.43-1.5,37.46,5.79,48.75,15.86" />
        <path class="o" d="m485.99,389.65c-5.77,2.78-8.74,6.85-8.74,6.85" />
        <path class="o" d="m475.47,396.69l5.56,1.74.89-.22s29.42,2.15,47.51,11.64" />
        <path class="o"
            d="m528.84,410.25c1.43-.19,2.39-.22,2.65-.03,1.19.82,15.57,12.56,18.98,18.21" />
        <polyline class="o" points="577.1 338.39 582.95 338.43 583.05 339.97" />
        <line class="o" x1="555.82" y1="342.16" x2="553.13" y2="343.64" />
        <path class="o" d="m544.69,347.13c-7.71,3.27-23.94,15.8-28.98,21.43" />
    </g>
</svg>