<?xml version="1.0" encoding="UTF-8"?>
<svg id="Layer_2" data-name="Layer 2" xmlns="http://www.w3.org/2000/svg" viewBox="0 0 264 264">
    <defs>
        <style>
            polygon { fill: #132B38; }
            @media (prefers-color-scheme: dark) {
            polygon { fill: #D8F1FF; }
            }
        </style>
    </defs>

    <polygon class="cls-1"
        points="236.19 155.58 256.64 155.1 215.87 153.25 194.42 150.79 176.74 146.29 160.95 137.17 157.53 131.25 160.91 125.39 176.72 116.26 176.72 116.27 194.09 111.81 215.83 109.32 256.61 107.46 236.15 106.99 256.48 104.66 214.94 106.55 255.83 98.99 235.5 101.32 255.32 96.23 215.18 103.65 194.78 105.99 194.56 105.98 213.1 98.44 251.77 85.49 231.98 90.64 250.88 82.83 212.86 95.57 212.18 95.74 213 95.27 248.7 77.55 229.8 85.37 247.45 75.04 210.87 93.19 191.93 100.89 172.12 105.97 172.13 105.96 172.12 105.96 186.18 91.53 203.43 78.12 236.47 56.06 218.73 66.22 219.2 65.85 234.91 53.73 201.09 76.3 202.34 75.03 231.43 49.21 215.85 61.23 215.85 61.23 215.71 61.34 215.23 61.71 229.56 47.11 198.12 75.02 183.23 86.6 195.66 69.84 222.15 38.78 207.84 53.4 220.02 36.96 193.03 68.59 215.43 33.57 203.25 50 213.07 32.05 191.07 66.44 178.22 83.78 165.48 96.84 149.69 105.96 142.93 105.96 139.56 100.13 139.56 81.87 139.56 81.87 144.39 64.6 153.1 44.53 171.88 8.29 161.24 25.76 169.39 6.99 150.26 43.91 164.15 4.72 156.01 23.49 161.51 3.79 147.86 42.26 139.69 61.1 139.57 61.28 142.32 41.45 150.43 1.48 145 21.21 147.68 .93 139.7 40.22 139.51 40.9 139.52 39.96 142.03 .18 139.34 20.46 139.22 0 136.65 40.77 133.85 61.01 128.35 80.71 128.34 80.7 128.34 80.71 122.87 61.31 119.88 39.66 117.3 .02 117.22 20.46 117.14 19.88 114.5 .2 117.14 40.79 116.66 39.07 108.84 .96 111.46 20.47 111.46 20.46 111.49 20.65 111.57 21.24 106.09 1.53 114.54 42.71 117.12 61.39 108.82 42.26 95.18 3.79 100.67 23.49 92.53 4.72 106.43 43.91 87.3 6.99 95.44 25.76 84.8 8.29 103.58 44.53 112.18 64.33 117.12 81.89 117.12 100.13 113.75 105.96 106.92 105.96 91.1 96.83 91.1 96.83 78.56 84.02 65.53 66.44 43.54 32.05 53.35 50 41.17 33.57 63.58 68.59 36.59 36.96 48.77 53.4 34.45 38.78 60.95 69.84 73.18 86.33 73.28 86.53 57.48 74.24 26.92 47.22 41.29 61.79 25.07 49.33 55.11 75.89 55.6 76.39 54.78 75.91 21.59 53.85 37.81 66.32 20.03 56.19 54.05 78.8 70.19 91.35 84.49 105.96 84.48 105.96 84.49 105.97 64.95 101 44.71 92.77 9.09 75.19 26.76 85.47 26.21 85.25 7.85 77.71 44.31 95.71 42.59 95.27 5.68 82.98 23.88 90.47 23.88 90.46 24.05 90.53 24.6 90.76 4.79 85.65 44.68 98.92 62.15 106.03 41.43 103.65 1.29 96.23 21.1 101.32 .78 98.99 41.66 106.55 .13 104.66 20.45 106.99 0 107.46 40.78 109.32 62.22 111.78 79.9 116.28 95.7 125.39 99.12 131.32 95.74 137.17 79.92 146.3 79.92 146.3 62.55 150.75 40.81 153.25 .04 155.1 20.49 155.58 .17 157.91 41.7 156.02 .82 163.58 21.14 161.25 1.33 166.34 41.46 158.92 61.87 156.58 62.09 156.58 43.54 164.12 4.87 177.08 24.67 171.93 5.76 179.74 43.78 167 44.46 166.83 43.65 167.3 7.94 185.01 26.85 177.2 9.19 187.53 45.78 169.37 64.71 161.67 84.52 156.59 84.52 156.6 84.53 156.6 70.46 171.04 53.21 184.45 20.17 206.51 37.91 196.35 37.44 196.71 21.73 208.84 55.55 186.26 54.31 187.53 25.22 213.36 40.8 201.33 40.79 201.34 40.94 201.22 41.41 200.86 27.08 215.46 58.52 187.55 73.41 175.97 60.99 192.73 34.49 223.78 48.81 209.17 36.63 225.6 63.62 193.98 41.21 229 53.39 212.56 43.58 230.51 65.57 196.13 78.43 178.79 91.16 165.72 106.95 156.6 113.72 156.6 117.08 162.44 117.08 180.7 117.08 180.7 112.26 197.96 103.55 218.04 84.76 254.28 95.4 236.8 87.26 255.57 106.39 218.66 92.49 257.84 100.64 239.08 95.14 258.78 108.78 220.31 116.96 201.47 117.07 201.28 114.33 221.11 106.21 261.08 111.65 241.36 108.96 261.64 116.94 222.34 117.13 221.67 117.13 222.61 114.62 262.39 117.3 242.11 117.42 262.57 119.99 221.8 122.79 201.56 128.3 181.86 128.3 181.87 128.31 181.86 133.77 201.26 136.77 222.9 139.35 262.54 139.42 242.1 139.5 242.69 142.15 262.36 139.51 221.78 139.99 223.5 147.8 261.6 145.18 242.1 145.18 242.1 145.16 241.92 145.08 241.33 150.55 261.04 142.11 219.85 139.52 201.17 147.83 220.31 161.47 258.78 155.97 239.08 164.11 257.84 150.22 218.66 169.35 255.57 161.2 236.8 171.84 254.28 153.06 218.04 144.47 198.23 139.52 180.67 139.52 162.44 142.89 156.6 149.73 156.6 165.54 165.73 165.54 165.73 178.08 178.55 191.11 196.13 213.11 230.51 203.29 212.56 215.47 229 193.07 193.98 220.06 225.6 207.87 209.17 222.19 223.78 195.69 192.73 183.47 176.23 183.36 176.04 199.16 188.33 229.72 215.34 215.36 200.77 231.58 213.24 201.54 186.68 201.05 186.18 201.86 186.65 235.06 208.71 218.84 196.25 236.61 206.38 202.59 183.77 186.46 171.22 172.15 156.6 172.16 156.6 172.16 156.59 191.69 161.56 211.94 169.79 247.55 187.38 229.89 177.09 230.44 177.31 248.8 184.86 212.33 166.86 214.06 167.3 250.97 179.58 232.76 172.1 232.77 172.1 232.6 172.03 232.04 171.81 251.85 176.92 211.96 163.64 194.49 156.54 215.22 158.92 255.36 166.34 235.54 161.25 255.87 163.58 214.98 156.02 256.52 157.91 236.19 155.58" />
</svg>